<?xml version="1.0" encoding="UTF-8"?>
<svg version="1.1" xmlns="http://www.w3.org/2000/svg" width="192" height="192">
<path d="M0 0 C2.80817881 2.80817881 2.77814474 5.84973533 3.2890625 9.6328125 C3.39721283 10.38464813 3.50536316 11.13648376 3.61679077 11.91110229 C3.96070519 14.31469617 4.29297498 16.71973782 4.625 19.125 C4.85600628 20.75401485 5.08776773 22.38292281 5.3203125 24.01171875 C5.88898143 28.00662445 6.44721176 32.00286719 7 36 C6.071875 35.67 5.14375 35.34 4.1875 35 C1.07970709 33.85032996 1.07970709 33.85032996 -2 34 C-3.98 38.62 -5.96 43.24 -8 48 C-5.94729537 46.15811388 -5.94729537 46.15811388 -5 44 C-3.9790625 43.814375 -3.9790625 43.814375 -2.9375 43.625 C-0.2462302 43.0523894 1.42190808 42.33779609 3.8125 41.0625 C12.53707265 36.60291361 22.51609948 35.25116169 32.0703125 37.828125 C34.75322819 38.8077182 37.37096215 39.88556333 40 41 C41.19625 41.350625 42.3925 41.70125 43.625 42.0625 C44.40875 42.371875 45.1925 42.68125 46 43 C46.33 43.99 46.66 44.98 47 46 C47.99 46.33 48.98 46.66 50 47 C53.59679443 51.82998109 54.67456778 55.59759403 54.37109375 61.62109375 C53.77702132 65.42941072 52.83232344 67.37491974 50 70 C44.38460288 71.2679929 39.86365874 69.99302076 35 67 C34.97263293 65.60427948 34.95344011 64.20839779 34.9375 62.8125 C34.92589844 62.03519531 34.91429687 61.25789063 34.90234375 60.45703125 C35.00481427 57.87887289 35.43302447 55.51344269 36 53 C26.86632685 47.29671562 17.36856927 45.850955 6.75 47.6875 C-1.7508016 49.61822559 -1.7508016 49.61822559 -9 54 C-8.0925 54.268125 -7.185 54.53625 -6.25 54.8125 C-3.27498522 55.89952463 -1.42197661 57.02653758 1 59 C1.33 59 1.66 59 2 59 C2 61.64 2 64.28 2 67 C-3.36903246 70.8516972 -6.53984968 71.33087188 -13.05859375 70.359375 C-13.69925781 70.24078125 -14.33992188 70.1221875 -15 70 C-15.185625 68.88625 -15.185625 68.88625 -15.375 67.75 C-15.95486701 65.19858515 -16.73708739 63.2732427 -18 61 C-19.46714278 63.86759725 -20.87542768 66.64289267 -21.9375 69.6875 C-23.19333662 72.42079148 -24.59193598 73.26920398 -27 75 C-27.33 75.680625 -27.66 76.36125 -28 77.0625 C-29.27968945 79.5418983 -30.5401117 79.77090467 -33 81 C-34.55003448 82.34062725 -34.55003448 82.34062725 -35.9609375 83.90625 C-36.50814453 84.48068848 -37.05535156 85.05512695 -37.61914062 85.64697266 C-38.19857422 86.25847168 -38.77800781 86.8699707 -39.375 87.5 C-46.74519175 95.08707703 -54.80516245 101.67624428 -64.16064453 106.69580078 C-67.29783628 108.7482683 -67.29783628 108.7482683 -67.68115234 112.20800781 C-67.64973145 113.44389648 -67.61831055 114.67978516 -67.5859375 115.953125 C-67.57320297 116.94345734 -67.57320297 116.94345734 -67.56021118 117.95379639 C-67.5267285 120.05422053 -67.45148521 122.15074547 -67.375 124.25 C-67.34489256 125.6770277 -67.31751808 127.10411586 -67.29296875 128.53125 C-67.22696218 132.02209173 -67.12348826 135.5106651 -67 139 C-71.52065428 139.049377 -76.04115217 139.08570823 -80.56201172 139.10986328 C-82.10045098 139.11993118 -83.63887107 139.13358646 -85.17724609 139.15087891 C-87.38644133 139.17509317 -89.59538395 139.18647491 -91.8046875 139.1953125 C-92.49432587 139.20563507 -93.18396423 139.21595764 -93.89450073 139.22659302 C-95.59800906 139.22699478 -97.30085943 139.12191026 -99 139 C-99.66 138.34 -100.32 137.68 -101 137 C-99.5459375 136.4121875 -99.5459375 136.4121875 -98.0625 135.8125 C-94.79606707 134.34653529 -94.79606707 134.34653529 -94.25 131.5 C-94.1675 130.675 -94.085 129.85 -94 129 C-93.34 128.01 -92.68 127.02 -92 126 C-91.67 126 -91.34 126 -91 126 C-90.67 123.36 -90.34 120.72 -90 118 C-89.21496094 117.81824219 -88.42992187 117.63648438 -87.62109375 117.44921875 C-81.80574429 116.05781612 -76.39995141 114.57724954 -71 112 C-73.1452142 110.64253239 -73.1452142 110.64253239 -76.23046875 111.9609375 C-77.55205318 112.42502567 -78.87098194 112.89672871 -80.1875 113.375 C-93.40897115 118.16367214 -105.49222338 117.82925267 -119 114 C-119.99 113.34 -120.98 112.68 -122 112 C-119.09056259 111.14158491 -116.76389887 110.992545 -113.75 111.1875 C-97.33398364 111.33298907 -82.62660821 103.25206466 -69 95 C-71.56977663 96.25194246 -74.08999103 97.58159253 -76.6015625 98.9453125 C-77.25640625 99.29980469 -77.91125 99.65429688 -78.5859375 100.01953125 C-79.95462653 100.76155998 -81.32179919 101.50639198 -82.6875 102.25390625 C-87.77732944 105 -87.77732944 105 -90 105 C-90.04934399 99.05518819 -90.08569282 93.11049491 -90.10986328 87.16552734 C-90.11993671 85.14206873 -90.13359595 83.11862472 -90.15087891 81.09521484 C-90.17506847 78.19104411 -90.18646949 75.28706539 -90.1953125 72.3828125 C-90.20563507 71.47443634 -90.21595764 70.56606018 -90.22659302 69.63015747 C-90.22674408 68.78943695 -90.22689514 67.94871643 -90.22705078 67.08251953 C-90.231492 66.34083527 -90.23593323 65.599151 -90.24050903 64.83499146 C-90 63 -90 63 -88 61 C-88.32198966 57.90073181 -88.32198966 57.90073181 -89 55 C-89.66 55 -90.32 55 -91 55 C-91.32613281 54.19175781 -91.65226562 53.38351563 -91.98828125 52.55078125 C-92.42527344 51.48214844 -92.86226562 50.41351563 -93.3125 49.3125 C-93.74175781 48.25675781 -94.17101562 47.20101562 -94.61328125 46.11328125 C-95.89137137 43.24387892 -97.37094648 40.67858379 -99 38 C-99.33 37.01 -99.66 36.02 -100 35 C-100.99 34.175 -101.98 33.35 -103 32.5 C-106 30 -106 30 -107 27 C-107.99 26.67 -108.98 26.34 -110 26 C-109.67 25.34 -109.34 24.68 -109 24 C-98.34557671 23.31261785 -91.10144912 26.57479023 -83.0078125 33.4140625 C-81.06172655 35.06294832 -81.06172655 35.06294832 -78.80859375 36.08984375 C-76.42571149 37.2890048 -76.08478247 38.61347857 -75 41 C-74.525625 41.474375 -74.05125 41.94875 -73.5625 42.4375 C-72 44 -72 44 -70.875 46.6875 C-69.25850108 49.2149485 -69.25850108 49.2149485 -66.80859375 49.3203125 C-64.51968443 49.31314846 -62.27825054 49.2149293 -60 49 C-62.1385485 46.8614515 -63.13275314 46.57344937 -66 46 C-66.02712066 44.56260487 -66.04645067 43.12506137 -66.0625 41.6875 C-66.07410156 40.88699219 -66.08570313 40.08648437 -66.09765625 39.26171875 C-66 37 -66 37 -65 34 C-65.73605469 34.03480469 -66.47210938 34.06960937 -67.23046875 34.10546875 C-76.81937066 34.37147528 -76.81937066 34.37147528 -81 31 C-81.66 30.67 -82.32 30.34 -83 30 C-83 25.71 -83 21.42 -83 17 C-73.35714286 11.375 -73.35714286 11.375 -68.6875 12.5 C-62.16536313 15.15307263 -62.16536313 15.15307263 -60 17 C-58.6875 20.6875 -58.6875 20.6875 -58 24 C-54.95865509 22.33075929 -54.95865509 22.33075929 -54 20 C-52.67149844 19.64790271 -51.33694435 19.31854152 -50 19 C-47.47506188 17.74779491 -45.009117 16.4083745 -42.53515625 15.05859375 C-39.81133346 13.92121936 -37.92001332 13.79627814 -35 14 C-36.45002023 18.10839064 -38.3979134 21.50344613 -41 25 C-41.66 25 -42.32 25 -43 25 C-43.185625 26.6396875 -43.185625 26.6396875 -43.375 28.3125 C-44 32 -44 32 -46 35 C-48.0587793 39.23911014 -48.57720948 43.49153048 -49.0625 48.125 C-49.88253012 55.64759036 -49.88253012 55.64759036 -51 59 C-45.830455 57.59012409 -42.24658648 54.13677955 -39 50 C-38.64527989 48.67219635 -38.30779086 47.33946022 -38 46 C-37.34 45.67 -36.68 45.34 -36 45 C-35.67 44.01 -35.34 43.02 -35 42 C-33.25 41 -33.25 41 -31 40 C-26.55167705 37.4422143 -22.8748723 35.31230844 -20 31 C-20.31730524 27.36060068 -20.31730524 27.36060068 -21 24 C-23.31 23.67 -25.62 23.34 -28 23 C-27.505 21.515 -27.505 21.515 -27 20 C-26.01 19.505 -26.01 19.505 -25 19 C-24.67 18.34 -24.34 17.68 -24 17 C-23.4225 16.896875 -22.845 16.79375 -22.25 16.6875 C-18.9375497 15.67536241 -17.28388533 13.53079186 -15 11 C-14.67 10.34 -14.34 9.68 -14 9 C-13.34 8.855625 -12.68 8.71125 -12 8.5625 C-11.34 8.376875 -10.68 8.19125 -10 8 C-9.67 7.01 -9.34 6.02 -9 5 C-7.66666667 4.66666667 -6.33333333 4.33333333 -5 4 C-3.2925002 2.71937515 -1.61736259 1.3927289 0 0 Z M-61 19 C-61 21.97 -61 24.94 -61 28 C-60.67 28 -60.34 28 -60 28 C-60 25.03 -60 22.06 -60 19 C-60.33 19 -60.66 19 -61 19 Z M-19 26 C-18 28 -18 28 -18 28 Z M-46 30 C-45 32 -45 32 -45 32 Z M-4 32 C-3 34 -3 34 -3 34 Z M-23 37 C-22 39 -22 39 -22 39 Z M-65 38 C-64 40 -64 40 -64 40 Z M-7 39 C-6 41 -6 41 -6 41 Z M-26 40 C-25 42 -25 42 -25 42 Z M-27 42 C-26 44 -26 44 -26 44 Z M-73 46 C-72 48 -72 48 -72 48 Z M-91 49 C-90 52 -90 52 -90 52 Z M-72 49 C-71 51 -71 51 -71 51 Z M-12 49 C-11 51 -11 51 -11 51 Z M-71 51 C-71 52.65 -71 54.3 -71 56 C-70.896875 55.360625 -70.79375 54.72125 -70.6875 54.0625 C-70.460625 53.381875 -70.23375 52.70125 -70 52 C-69.01 51.67 -68.02 51.34 -67 51 C-68.32 51 -69.64 51 -71 51 Z M51 52 C52 54 52 54 52 54 Z M52 55 C52 57.97 52 60.94 52 64 C52.33 64 52.66 64 53 64 C53 61.03 53 58.06 53 55 C52.67 55 52.34 55 52 55 Z M-16 59 C-15 61 -15 61 -15 61 Z M-49 60 C-48 62 -48 62 -48 62 Z M-87 62 C-86 64 -86 64 -86 64 Z M-48 63 C-47 65 -47 65 -47 65 Z M-39 63 C-39 63.99 -39 64.98 -39 66 C-38.34 65.34 -37.68 64.68 -37 64 C-37.66 63.67 -38.32 63.34 -39 63 Z M-86 64 C-85 66 -85 66 -85 66 Z M-69 64 C-69 64.66 -69 65.32 -69 66 C-68.34 65.67 -67.68 65.34 -67 65 C-67.66 64.67 -68.32 64.34 -69 64 Z M-49 65 C-48 67 -48 67 -48 67 Z M-87 67 C-86 69 -86 69 -86 69 Z M-65 67 C-64 69 -64 69 -64 69 Z M-48 67 C-47 69 -47 69 -47 69 Z M-42 67 C-42.99 67.99 -43.98 68.98 -45 70 C-44.01 70.33 -43.02 70.66 -42 71 C-41.34 70.01 -40.68 69.02 -40 68 C-40.66 67.67 -41.32 67.34 -42 67 Z M-47 69 C-46 71 -46 71 -46 71 Z M-68 72 C-67 74 -67 74 -67 74 Z M-67 74 C-67 74.99 -67 75.98 -67 77 C-66.34 76.67 -65.68 76.34 -65 76 C-65.66 75.34 -66.32 74.68 -67 74 Z M-80 76 C-80 76.99 -80 77.98 -80 79 C-79.34 78.34 -78.68 77.68 -78 77 C-78.66 76.67 -79.32 76.34 -80 76 Z M-71 77 C-70 79 -70 79 -70 79 Z M-78 78 C-78 78.66 -78 79.32 -78 80 C-75.04335481 81.4783226 -72.25770263 81.06032783 -69 81 C-71.96687001 79.35173889 -74.65626525 78.55728913 -78 78 Z M-69 78 C-69 78.66 -69 79.32 -69 80 C-67.02 80 -65.04 80 -63 80 C-63.33 79.34 -63.66 78.68 -64 78 C-65.65 78 -67.3 78 -69 78 Z M-53.125 80 C-53.74375 80.66 -54.3625 81.32 -55 82 C-54.67 82.66 -54.34 83.32 -54 84 C-52.35 82.02 -50.7 80.04 -49 78 C-51.24362573 77.7715451 -51.24362573 77.7715451 -53.125 80 Z M-62 81 C-62 81.99 -62 82.98 -62 84 C-61.34 84.33 -60.68 84.66 -60 85 C-57.88316159 84.10836423 -57.88316159 84.10836423 -56 83 C-57.98 82.34 -59.96 81.68 -62 81 Z M-61 87 C-61 90 -61 90 -61 90 Z M-64 89 C-64 89.99 -64 90.98 -64 92 C-63.34 91.34 -62.68 90.68 -62 90 C-62.66 89.67 -63.32 89.34 -64 89 Z M-66 91 C-66 94 -66 94 -66 94 Z " fill="#DDB942" transform="translate(126,19)"/>
<path d="M0 0 C2.96367756 2.52784262 3.34992515 5.07804844 4.125 8.8125 C7.16634491 7.14325929 7.16634491 7.14325929 8.125 4.8125 C9.45350156 4.46040271 10.78805565 4.13104152 12.125 3.8125 C14.64993812 2.56029491 17.115883 1.2208745 19.58984375 -0.12890625 C22.31366654 -1.26628064 24.20498668 -1.39122186 27.125 -1.1875 C25.67497977 2.92089064 23.7270866 6.31594613 21.125 9.8125 C20.465 9.8125 19.805 9.8125 19.125 9.8125 C18.939375 11.4521875 18.939375 11.4521875 18.75 13.125 C18.125 16.8125 18.125 16.8125 16.125 19.8125 C14.0662207 24.05161014 13.54779052 28.30403048 13.0625 32.9375 C12.24246988 40.46009036 12.24246988 40.46009036 11.125 43.8125 C16.294545 42.40262409 19.87841352 38.94927955 23.125 34.8125 C23.47972011 33.48469635 23.81720914 32.15196022 24.125 30.8125 C24.785 30.4825 25.445 30.1525 26.125 29.8125 C26.455 28.8225 26.785 27.8325 27.125 26.8125 C28.875 25.8125 28.875 25.8125 31.125 24.8125 C32.79834039 23.82370795 34.46651823 22.82601664 36.125 21.8125 C37.73863928 25.03977857 36.20956242 27.50173051 35.125 30.8125 C33.82551666 33.84462778 32.0980854 36.18171946 30.125 38.8125 C26.93837246 43.70441951 26.93837246 43.70441951 24.125 48.8125 C23.279375 49.6375 22.43375 50.4625 21.5625 51.3125 C18.89229995 53.46923014 18.89229995 53.46923014 19.125 55.8125 C18.135 56.8025 18.135 56.8025 17.125 57.8125 C16.526875 58.59625 15.92875 59.38 15.3125 60.1875 C13.125 62.8125 13.125 62.8125 10.6875 64.75 C8.55183444 66.46895033 7.1191588 67.95053439 5.4375 70.0625 C4.674375 70.97 3.91125 71.8775 3.125 72.8125 C2.465 72.8125 1.805 72.8125 1.125 72.8125 C0.465 73.4725 -0.195 74.1325 -0.875 74.8125 C-4.60041578 77.99338086 -8.54907035 80.49317009 -12.8125 82.875 C-13.40740234 83.21337891 -14.00230469 83.55175781 -14.61523438 83.90039062 C-25.07863878 89.8125 -25.07863878 89.8125 -27.875 89.8125 C-27.92434399 83.86768819 -27.96069282 77.92299491 -27.98486328 71.97802734 C-27.99493671 69.95456873 -28.00859595 67.93112472 -28.02587891 65.90771484 C-28.05006847 63.00354411 -28.06146949 60.09956539 -28.0703125 57.1953125 C-28.08063507 56.28693634 -28.09095764 55.37856018 -28.10159302 54.44265747 C-28.10174408 53.60193695 -28.10189514 52.76121643 -28.10205078 51.89501953 C-28.106492 51.15333527 -28.11093323 50.411651 -28.11550903 49.64749146 C-27.875 47.8125 -27.875 47.8125 -25.875 45.8125 C-26.19698966 42.71323181 -26.19698966 42.71323181 -26.875 39.8125 C-27.535 39.8125 -28.195 39.8125 -28.875 39.8125 C-29.20113281 39.00425781 -29.52726562 38.19601563 -29.86328125 37.36328125 C-30.30027344 36.29464844 -30.73726562 35.22601563 -31.1875 34.125 C-31.61675781 33.06925781 -32.04601563 32.01351562 -32.48828125 30.92578125 C-33.76637137 28.05637892 -35.24594648 25.49108379 -36.875 22.8125 C-37.205 21.8225 -37.535 20.8325 -37.875 19.8125 C-38.865 18.9875 -39.855 18.1625 -40.875 17.3125 C-43.875 14.8125 -43.875 14.8125 -44.875 11.8125 C-45.865 11.4825 -46.855 11.1525 -47.875 10.8125 C-47.545 10.1525 -47.215 9.4925 -46.875 8.8125 C-36.22057671 8.12511785 -28.97644912 11.38729023 -20.8828125 18.2265625 C-18.93672655 19.87544832 -18.93672655 19.87544832 -16.68359375 20.90234375 C-14.30071149 22.1015048 -13.95978247 23.42597857 -12.875 25.8125 C-12.400625 26.286875 -11.92625 26.76125 -11.4375 27.25 C-9.875 28.8125 -9.875 28.8125 -8.75 31.5 C-7.13350108 34.0274485 -7.13350108 34.0274485 -4.68359375 34.1328125 C-2.39468443 34.12564846 -0.15325054 34.0274293 2.125 33.8125 C-0.0135485 31.6739515 -1.00775314 31.38594937 -3.875 30.8125 C-3.90212066 29.37510487 -3.92145067 27.93756137 -3.9375 26.5 C-3.94910156 25.69949219 -3.96070313 24.89898437 -3.97265625 24.07421875 C-3.875 21.8125 -3.875 21.8125 -2.875 18.8125 C-3.61105469 18.84730469 -4.34710938 18.88210937 -5.10546875 18.91796875 C-14.69437066 19.18397528 -14.69437066 19.18397528 -18.875 15.8125 C-19.535 15.4825 -20.195 15.1525 -20.875 14.8125 C-20.875 10.5225 -20.875 6.2325 -20.875 1.8125 C-12.16291014 -3.26955242 -9.24011284 -3.81656835 0 0 Z M1.125 3.8125 C1.125 6.7825 1.125 9.7525 1.125 12.8125 C1.455 12.8125 1.785 12.8125 2.125 12.8125 C2.125 9.8425 2.125 6.8725 2.125 3.8125 C1.795 3.8125 1.465 3.8125 1.125 3.8125 Z M16.125 14.8125 C17.125 16.8125 17.125 16.8125 17.125 16.8125 Z M-2.875 22.8125 C-1.875 24.8125 -1.875 24.8125 -1.875 24.8125 Z M-10.875 30.8125 C-9.875 32.8125 -9.875 32.8125 -9.875 32.8125 Z M-28.875 33.8125 C-27.875 36.8125 -27.875 36.8125 -27.875 36.8125 Z M-9.875 33.8125 C-8.875 35.8125 -8.875 35.8125 -8.875 35.8125 Z M-8.875 35.8125 C-8.875 37.4625 -8.875 39.1125 -8.875 40.8125 C-8.771875 40.173125 -8.66875 39.53375 -8.5625 38.875 C-8.335625 38.194375 -8.10875 37.51375 -7.875 36.8125 C-6.885 36.4825 -5.895 36.1525 -4.875 35.8125 C-6.195 35.8125 -7.515 35.8125 -8.875 35.8125 Z M13.125 44.8125 C14.125 46.8125 14.125 46.8125 14.125 46.8125 Z M-24.875 46.8125 C-23.875 48.8125 -23.875 48.8125 -23.875 48.8125 Z M14.125 47.8125 C15.125 49.8125 15.125 49.8125 15.125 49.8125 Z M-23.875 48.8125 C-22.875 50.8125 -22.875 50.8125 -22.875 50.8125 Z M-6.875 48.8125 C-6.875 49.4725 -6.875 50.1325 -6.875 50.8125 C-6.215 50.4825 -5.555 50.1525 -4.875 49.8125 C-5.535 49.4825 -6.195 49.1525 -6.875 48.8125 Z M13.125 49.8125 C14.125 51.8125 14.125 51.8125 14.125 51.8125 Z M-24.875 51.8125 C-23.875 53.8125 -23.875 53.8125 -23.875 53.8125 Z M-2.875 51.8125 C-1.875 53.8125 -1.875 53.8125 -1.875 53.8125 Z M14.125 51.8125 C15.125 53.8125 15.125 53.8125 15.125 53.8125 Z M15.125 53.8125 C16.125 55.8125 16.125 55.8125 16.125 55.8125 Z M-5.875 56.8125 C-4.875 58.8125 -4.875 58.8125 -4.875 58.8125 Z M-4.875 58.8125 C-4.875 59.8025 -4.875 60.7925 -4.875 61.8125 C-4.215 61.4825 -3.555 61.1525 -2.875 60.8125 C-3.535 60.1525 -4.195 59.4925 -4.875 58.8125 Z M-17.875 60.8125 C-17.875 61.8025 -17.875 62.7925 -17.875 63.8125 C-17.215 63.1525 -16.555 62.4925 -15.875 61.8125 C-16.535 61.4825 -17.195 61.1525 -17.875 60.8125 Z M-8.875 61.8125 C-7.875 63.8125 -7.875 63.8125 -7.875 63.8125 Z M-15.875 62.8125 C-15.875 63.4725 -15.875 64.1325 -15.875 64.8125 C-12.91835481 66.2908226 -10.13270263 65.87282783 -6.875 65.8125 C-9.84187001 64.16423889 -12.53126525 63.36978913 -15.875 62.8125 Z M-6.875 62.8125 C-6.875 63.4725 -6.875 64.1325 -6.875 64.8125 C-4.895 64.8125 -2.915 64.8125 -0.875 64.8125 C-1.205 64.1525 -1.535 63.4925 -1.875 62.8125 C-3.525 62.8125 -5.175 62.8125 -6.875 62.8125 Z M0.125 65.8125 C0.125 66.8025 0.125 67.7925 0.125 68.8125 C0.785 69.1425 1.445 69.4725 2.125 69.8125 C4.24183841 68.92086423 4.24183841 68.92086423 6.125 67.8125 C4.145 67.1525 2.165 66.4925 0.125 65.8125 Z " fill="#1E8E5B" transform="translate(63.875,34.1875)"/>
<path d="M0 0 C4.95 0 9.9 0 15 0 C15 14.85 15 29.7 15 45 C10.05 45.495 10.05 45.495 5 46 C6.24976756 49.65316671 6.67098753 50.78065836 10 53 C10 53.66 10 54.32 10 55 C11.98 54.505 11.98 54.505 14 54 C14 52.35 14 50.7 14 49 C18.29299643 47.73735399 20.87831311 48.37049588 25 50 C25.99 49.01 25.99 49.01 27 48 C27.99 48 28.98 48 30 48 C29.7215625 49.051875 29.7215625 49.051875 29.4375 50.125 C28.94843024 53.33888698 29.33768442 55.83560336 30 59 C30.66 59 31.32 59 32 59 C32.0825 57.9275 32.165 56.855 32.25 55.75 C33 52 33 52 34.5625 49.5625 C37.98590643 47.3680087 41.09815574 47.4735607 45 48 C47.9375 48.875 47.9375 48.875 50 50 C50.33 50.66 50.66 51.32 51 52 C51.66 52 52.32 52 53 52 C53.7425 51.175 54.485 50.35 55.25 49.5 C58 47 58 47 61.125 46.5 C64.26342478 47.04581301 65.02168321 47.62601986 67 50 C67.66 50 68.32 50 69 50 C69.1953125 56.0546875 69.1953125 56.0546875 69 58 C68.01 58.99 68.01 58.99 67 60 C66.83312552 62.58354218 66.83312552 62.58354218 67 65 C62.38032292 65.83154187 58.57462259 66.19811544 54 65 C53.67 64.34 53.34 63.68 53 63 C50.10985706 62.76388929 50.10985706 62.76388929 48.25 63.9375 C44.58905562 65.66627929 40.958895 66.59452844 36.9921875 65.390625 C35.29669806 64.66300605 33.64347708 63.83850871 32 63 C32 62.34 32 61.68 32 61 C30.02 61.33 28.04 61.66 26 62 C26.66 62.33 27.32 62.66 28 63 C28 63.66 28 64.32 28 65 C27.14535156 64.98839844 26.29070312 64.97679687 25.41015625 64.96484375 C24.30542969 64.95582031 23.20070312 64.94679688 22.0625 64.9375 C20.96035156 64.92589844 19.85820312 64.91429687 18.72265625 64.90234375 C16.08552366 64.68737429 16.08552366 64.68737429 15 66 C13.06849858 66.10023458 11.1333182 66.13081373 9.19921875 66.1328125 C7.3903418 66.13474609 7.3903418 66.13474609 5.54492188 66.13671875 C4.27197266 66.13285156 2.99902344 66.12898438 1.6875 66.125 C0.45708984 66.12886719 -0.77332031 66.13273437 -2.04101562 66.13671875 C-9.74445996 66.12857988 -17.33582719 65.7791066 -25 65 C-25.1546875 63.576875 -25.1546875 63.576875 -25.3125 62.125 C-25.68539295 58.70892499 -25.68539295 58.70892499 -29 57 C-28.67 56.34 -28.34 55.68 -28 55 C-28.3574765 53.06874034 -28.3574765 53.06874034 -29 51 C-29.625 48.8125 -29.625 48.8125 -30 47 C-29.505 46.505 -29.505 46.505 -29 46 C-29.28604898 44.32457024 -29.61781233 42.65614657 -30 41 C-30.99 40.67 -31.98 40.34 -33 40 C-34.38671875 38.328125 -34.38671875 38.328125 -35.6875 36.25 C-36.12449219 35.57453125 -36.56148438 34.8990625 -37.01171875 34.203125 C-38.22651334 31.49504536 -38.50838031 29.93474088 -38 27 C-36.05859375 24.97265625 -36.05859375 24.97265625 -33.4375 23.0625 C-30.17749578 20.63709375 -27.08992599 18.21509951 -24.125 15.4375 C-21 13 -21 13 -19.00390625 13.07421875 C-16.3007049 14.32306616 -15.38907882 15.87030666 -13.8125 18.375 C-13.30332031 19.16648437 -12.79414062 19.95796875 -12.26953125 20.7734375 C-11 23 -11 23 -10 26 C-9.401875 26.598125 -8.80375 27.19625 -8.1875 27.8125 C-4.88690352 31.11309648 -2.47828245 34.56515264 -1 39 C-0.67 26.13 -0.34 13.26 0 0 Z M42 51 C41.34 51.66 40.68 52.32 40 53 C40.99 53.495 40.99 53.495 42 54 C42.66 53.67 43.32 53.34 44 53 C44 52.34 44 51.68 44 51 C43.34 51 42.68 51 42 51 Z M50 54 C50 55.98 50 57.96 50 60 C50.66 58.68 51.32 57.36 52 56 C51.34 55.34 50.68 54.68 50 54 Z M37 57 C38 59 38 59 38 59 Z M43 57 C43 57.99 43 58.98 43 60 C43.66 59.34 44.32 58.68 45 58 C44.34 57.67 43.68 57.34 43 57 Z M13 59 C13 59.99 13 60.98 13 62 C13.99 62 14.98 62 16 62 C15.01 61.01 14.02 60.02 13 59 Z M40 59 C39.01 60.485 39.01 60.485 38 62 C39.32 61.67 40.64 61.34 42 61 C42 60.34 42 59.68 42 59 C41.34 59 40.68 59 40 59 Z " fill="#1E8E5B" transform="translate(110,92)"/>
<path d="M0 0 C1.19625 0.350625 2.3925 0.70125 3.625 1.0625 C4.40875 1.371875 5.1925 1.68125 6 2 C6.495 3.485 6.495 3.485 7 5 C7.99 5.33 8.98 5.66 10 6 C13.59679443 10.82998109 14.67456778 14.59759403 14.37109375 20.62109375 C13.77702132 24.42941072 12.83232344 26.37491974 10 29 C4.38460288 30.2679929 -0.13634126 28.99302076 -5 26 C-5.02736707 24.60427948 -5.04655989 23.20839779 -5.0625 21.8125 C-5.07410156 21.03519531 -5.08570313 20.25789063 -5.09765625 19.45703125 C-4.99518573 16.87887289 -4.56697553 14.51344269 -4 12 C-13.13367315 6.29671562 -22.63143073 4.850955 -33.25 6.6875 C-40.53527497 8.4608893 -47.38380087 11.51778993 -54 15 C-54 14.01 -54 13.02 -54 12 C-53.34 12.33 -52.68 12.66 -52 13 C-51.67 12.01 -51.34 11.02 -51 10 C-49.3540349 8.31288577 -47.68762851 6.6454378 -46 5 C-45.67 4.34 -45.34 3.68 -45 3 C-44.319375 2.87625 -43.63875 2.7525 -42.9375 2.625 C-40.2462302 2.0523894 -38.57809192 1.33779609 -36.1875 0.0625 C-24.13964813 -6.09578859 -12.19121061 -5.16779631 0 0 Z M11 11 C12 13 12 13 12 13 Z M12 14 C12 16.97 12 19.94 12 23 C12.33 23 12.66 23 13 23 C13 20.03 13 17.06 13 14 C12.67 14 12.34 14 12 14 Z " fill="#DCB844" transform="translate(166,60)"/>
<path d="M0 0 C1.8871875 0.0309375 1.8871875 0.0309375 3.8125 0.0625 C3.83944851 2.02075873 3.85887218 3.97912226 3.875 5.9375 C3.88660156 7.02804688 3.89820313 8.11859375 3.91015625 9.2421875 C3.8125 12.0625 3.8125 12.0625 2.8125 14.0625 C1.53375 14.02125 0.255 13.98 -1.0625 13.9375 C-3.20621492 13.82037127 -3.20621492 13.82037127 -5.1875 14.0625 C-7.54703094 16.42203094 -7.67891413 17.84145617 -8.1875 21.0625 C-8.8475 21.0625 -9.5075 21.0625 -10.1875 21.0625 C-10.5175 28.6525 -10.8475 36.2425 -11.1875 44.0625 C-15.4775 44.0625 -19.7675 44.0625 -24.1875 44.0625 C-24.1875 29.8725 -24.1875 15.6825 -24.1875 1.0625 C-20.2275 1.0625 -16.2675 1.0625 -12.1875 1.0625 C-11.5275 2.0525 -10.8675 3.0425 -10.1875 4.0625 C-9.754375 3.588125 -9.32125 3.11375 -8.875 2.625 C-6.13181875 0.08501736 -3.56935869 -0.05851408 0 0 Z " fill="#1F8F5C" transform="translate(156.1875,90.9375)"/>
<path d="M0 0 C3.54384383 0.51546819 4.31010328 0.81276204 6.4375 3.5 C7.0975 3.5 7.7575 3.5 8.4375 3.5 C8.6328125 9.5546875 8.6328125 9.5546875 8.4375 11.5 C7.7775 12.16 7.1175 12.82 6.4375 13.5 C6.27062552 16.08354218 6.27062552 16.08354218 6.4375 18.5 C1.81782292 19.33154187 -1.98787741 19.69811544 -6.5625 18.5 C-7.0575 17.51 -7.0575 17.51 -7.5625 16.5 C-10.45264294 16.26388929 -10.45264294 16.26388929 -12.3125 17.4375 C-15.97344438 19.16627929 -19.603605 20.09452844 -23.5703125 18.890625 C-25.26580194 18.16300605 -26.91902292 17.33850871 -28.5625 16.5 C-28.5625 15.84 -28.5625 15.18 -28.5625 14.5 C-30.5425 14.83 -32.5225 15.16 -34.5625 15.5 C-33.9025 15.83 -33.2425 16.16 -32.5625 16.5 C-32.5625 17.16 -32.5625 17.82 -32.5625 18.5 C-36.5225 18.5 -40.4825 18.5 -44.5625 18.5 C-45.2225 16.85 -45.8825 15.2 -46.5625 13.5 C-47.2225 13.5 -47.8825 13.5 -48.5625 13.5 C-48.253125 12.4275 -47.94375 11.355 -47.625 10.25 C-46.89437904 7.67133778 -46.18767096 5.10487898 -45.5625 2.5 C-41.74760326 1.03273202 -39.27238378 2.06663581 -35.5625 3.5 C-34.9025 2.84 -34.2425 2.18 -33.5625 1.5 C-32.5725 1.5 -31.5825 1.5 -30.5625 1.5 C-30.748125 2.20125 -30.93375 2.9025 -31.125 3.625 C-31.61406976 6.83888698 -31.22481558 9.33560336 -30.5625 12.5 C-29.9025 12.5 -29.2425 12.5 -28.5625 12.5 C-28.48 11.4275 -28.3975 10.355 -28.3125 9.25 C-27.5625 5.5 -27.5625 5.5 -26 3.0625 C-22.57659357 0.8680087 -19.46434426 0.9735607 -15.5625 1.5 C-12.625 2.375 -12.625 2.375 -10.5625 3.5 C-10.0675 4.49 -10.0675 4.49 -9.5625 5.5 C-8.9025 5.5 -8.2425 5.5 -7.5625 5.5 C-7.005625 4.675 -6.44875 3.85 -5.875 3 C-3.5625 0.5 -3.5625 0.5 0 0 Z M-18.5625 4.5 C-19.2225 5.16 -19.8825 5.82 -20.5625 6.5 C-19.5725 6.995 -19.5725 6.995 -18.5625 7.5 C-17.9025 7.17 -17.2425 6.84 -16.5625 6.5 C-16.5625 5.84 -16.5625 5.18 -16.5625 4.5 C-17.2225 4.5 -17.8825 4.5 -18.5625 4.5 Z M-10.5625 7.5 C-10.5625 9.48 -10.5625 11.46 -10.5625 13.5 C-9.9025 12.18 -9.2425 10.86 -8.5625 9.5 C-9.2225 8.84 -9.8825 8.18 -10.5625 7.5 Z M-23.5625 10.5 C-22.5625 12.5 -22.5625 12.5 -22.5625 12.5 Z M-17.5625 10.5 C-17.5625 11.49 -17.5625 12.48 -17.5625 13.5 C-16.9025 12.84 -16.2425 12.18 -15.5625 11.5 C-16.2225 11.17 -16.8825 10.84 -17.5625 10.5 Z M-20.5625 12.5 C-21.5525 13.985 -21.5525 13.985 -22.5625 15.5 C-21.2425 15.17 -19.9225 14.84 -18.5625 14.5 C-18.5625 13.84 -18.5625 13.18 -18.5625 12.5 C-19.2225 12.5 -19.8825 12.5 -20.5625 12.5 Z " fill="#DDBD4B" transform="translate(170.5625,138.5)"/>
<path d="M0 0 C1.32 0.66 2.64 1.32 4 2 C4 11.24 4 20.48 4 30 C-0.52092314 30.04587182 -5.04104142 30.08570764 -9.56201172 30.10986328 C-11.10045098 30.11993118 -12.63887107 30.13358646 -14.17724609 30.15087891 C-16.38644133 30.17509317 -18.59538395 30.18647491 -20.8046875 30.1953125 C-21.49432587 30.20563507 -22.18396423 30.21595764 -22.89450073 30.22659302 C-24.59800906 30.22699478 -26.30085943 30.12191026 -28 30 C-28.66 29.34 -29.32 28.68 -30 28 C-29.030625 27.608125 -28.06125 27.21625 -27.0625 26.8125 C-23.79606707 25.34653529 -23.79606707 25.34653529 -23.25 22.5 C-23.1675 21.675 -23.085 20.85 -23 20 C-22.34 19.01 -21.68 18.02 -21 17 C-20.67 17 -20.34 17 -20 17 C-19.67 14.36 -19.34 11.72 -19 9 C-18.21496094 8.81824219 -17.42992187 8.63648438 -16.62109375 8.44921875 C-10.80574429 7.05781612 -5.39995141 5.57724954 0 3 C0 2.01 0 1.02 0 0 Z " fill="#23925B" transform="translate(55,128)"/>
<path d="M0 0 C4.62 0 9.24 0 14 0 C14 14.19 14 28.38 14 43 C9.38 43 4.76 43 0 43 C0 28.81 0 14.62 0 0 Z " fill="#258E5F" transform="translate(163,92)"/>
<path d="M0 0 C3.63 0 7.26 0 11 0 C11 13.53 11 27.06 11 41 C7.37 41 3.74 41 0 41 C0 27.47 0 13.94 0 0 Z " fill="#1F935F" transform="translate(113,93)"/>
<path d="M0 0 C0.763125 0.33 1.52625 0.66 2.3125 1 C4.99069135 2.17436686 4.99069135 2.17436686 8 2 C10.0601319 8.04305356 11.12371581 12.56677796 11 19 C8.03 19 5.06 19 2 19 C2 17.68 2 16.36 2 15 C1.34 15 0.68 15 0 15 C0 16.32 0 17.64 0 19 C-2.97 19 -5.94 19 -9 19 C-10.0845666 10.44397463 -10.0845666 10.44397463 -6.99609375 6.33203125 C-4.7385634 4.10983001 -2.44730103 2.01028299 0 0 Z " fill="#C6B455" transform="translate(69,138)"/>
<path d="M0 0 C0.66 0.33 1.32 0.66 2 1 C2.33 1.99 2.66 2.98 3 4 C3.66 4.33 4.32 4.66 5 5 C5 5.66 5 6.32 5 7 C5.66 7 6.32 7 7 7 C7.12375 7.94875 7.2475 8.8975 7.375 9.875 C7.71687177 13.08667191 7.71687177 13.08667191 10 15 C10 15.99 10 16.98 10 18 C3.25766581 18.12910853 -3.30386804 17.797837 -10 17 C-10.625 14.6875 -10.625 14.6875 -11 12 C-10.34 11.01 -9.68 10.02 -9 9 C-8.60986284 7.0103005 -8.26797351 5.00980131 -8 3 C-7.34 3 -6.68 3 -6 3 C-5.67 2.34 -5.34 1.68 -5 1 C-5 1.66 -5 2.32 -5 3 C-4.01 3.33 -3.02 3.66 -2 4 C-1.34 2.68 -0.68 1.36 0 0 Z " fill="#288A56" transform="translate(115,140)"/>
<path d="M0 0 C2.875 2 2.875 2 5 4 C5.33 4 5.66 4 6 4 C6 6.64 6 9.28 6 12 C0.63096754 15.8516972 -2.53984968 16.33087188 -9.05859375 15.359375 C-9.69925781 15.24078125 -10.33992188 15.1221875 -11 15 C-11.98793884 10.92475227 -12.46477086 7.18293776 -12 3 C-8.37390215 -0.40633435 -4.81497625 -0.60187203 0 0 Z " fill="#208C5A" transform="translate(122,74)"/>
<path d="M0 0 C-1 1 -1 1 -4.0625 1.0625 C-5.031875 1.041875 -6.00125 1.02125 -7 1 C-6.67 2.65 -6.34 4.3 -6 6 C-5.34 5.67 -4.68 5.34 -4 5 C-2.35 7.31 -0.7 9.62 1 12 C0.360625 12.598125 -0.27875 13.19625 -0.9375 13.8125 C-3.20310389 15.90810337 -3.20310389 15.90810337 -4 19 C-1.69 17.35 0.62 15.7 3 14 C3.556875 14.66 4.11375 15.32 4.6875 16 C6.84062308 18.25492211 6.84062308 18.25492211 9.75 18.25 C10.86375 18.12625 10.86375 18.12625 12 18 C11.67 18.66 11.34 19.32 11 20 C4.5243347 21.40659943 -2.45301864 21.11900072 -9.0625 21.1875 C-9.81273437 21.20055176 -10.56296875 21.21360352 -11.3359375 21.22705078 C-13.22547224 21.23007335 -15.11448321 21.12319545 -17 21 C-17.66 20.34 -18.32 19.68 -19 19 C-18.030625 18.608125 -17.06125 18.21625 -16.0625 17.8125 C-12.79606707 16.34653529 -12.79606707 16.34653529 -12.25 13.5 C-12.1675 12.675 -12.085 11.85 -12 11 C-11.34 10.01 -10.68 9.02 -10 8 C-9.67 8 -9.34 8 -9 8 C-8.67 5.36 -8.34 2.72 -8 0 C-2.25 -1.125 -2.25 -1.125 0 0 Z " fill="#218B57" transform="translate(44,137)"/>
<path d="M0 0 C3.82451128 0.53118212 6.20254495 1.29579345 9 4 C10.75 7.1875 10.75 7.1875 12 10 C14.26802406 7.30009243 14.26802406 7.30009243 13.75 4.875 C13.16263073 2.8044971 13.16263073 2.8044971 11 2 C11 1.34 11 0.68 11 0 C15.5160538 -0.36616652 15.5160538 -0.36616652 17.62109375 1.2265625 C19.31638208 3.406905 19.51586978 4.82947995 19.75 7.5625 C19.82734375 8.34753906 19.9046875 9.13257813 19.984375 9.94140625 C20 12 20 12 19 14 C17.35 14 15.7 14 14 14 C14.33 15.32 14.66 16.64 15 18 C11.7 18 8.4 18 5 18 C4.896875 17.05125 4.79375 16.1025 4.6875 15.125 C4.31460705 11.70892499 4.31460705 11.70892499 1 10 C1.33 9.34 1.66 8.68 2 8 C1.6425235 6.06874034 1.6425235 6.06874034 1 4 C0.66666667 2.66666667 0.33333333 1.33333333 0 0 Z " fill="#D3B742" transform="translate(80,139)"/>
<path d="M0 0 C1.32 0.66 2.64 1.32 4 2 C4 11.24 4 20.48 4 30 C-0.95 30 -5.9 30 -11 30 C-11 29.67 -11 29.34 -11 29 C-7.535 28.505 -7.535 28.505 -4 28 C-5.65 26.68 -7.3 25.36 -9 24 C-9.928125 24.99 -9.928125 24.99 -10.875 26 C-13 28 -13 28 -15 28 C-14.40072174 24.64404172 -13.15377564 22.62198774 -11 20 C-11.66 19.38125 -12.32 18.7625 -13 18.125 C-15 16 -15 16 -15 14 C-12 15 -12 15 -10 18 C-6.88667752 17.33131686 -6.88667752 17.33131686 -5.8125 14.9375 C-5.544375 14.298125 -5.27625 13.65875 -5 13 C-4.67 13.99 -4.34 14.98 -4 16 C-3.01 15.67 -2.02 15.34 -1 15 C-0.01 16.32 0.98 17.64 2 19 C2 14.05 2 9.1 2 4 C1.34 3.67 0.68 3.34 0 3 C0 2.01 0 1.02 0 0 Z " fill="#2D8957" transform="translate(55,128)"/>
<path d="M0 0 C0.61875 0.09152344 1.2375 0.18304688 1.875 0.27734375 C2.535 -0.38265625 3.195 -1.04265625 3.875 -1.72265625 C4.865 -1.72265625 5.855 -1.72265625 6.875 -1.72265625 C6.689375 -1.02140625 6.50375 -0.32015625 6.3125 0.40234375 C5.82343024 3.61623073 6.21268442 6.11294711 6.875 9.27734375 C6.545 8.28734375 6.215 7.29734375 5.875 6.27734375 C0.925 6.27734375 -4.025 6.27734375 -9.125 6.27734375 C-9.455 7.59734375 -9.785 8.91734375 -10.125 10.27734375 C-10.455 9.61734375 -10.785 8.95734375 -11.125 8.27734375 C-10.50443989 6.59296631 -9.83210678 4.92725957 -9.125 3.27734375 C-8.96 2.53484375 -8.795 1.79234375 -8.625 1.02734375 C-8.46 0.44984375 -8.295 -0.12765625 -8.125 -0.72265625 C-5.1465223 -2.2118951 -3.07317712 -0.95471863 0 0 Z " fill="#C9B871" transform="translate(133.125,141.72265625)"/>
<path d="M0 0 C0.99 0 1.98 0 3 0 C3.4125 0.495 3.825 0.99 4.25 1.5 C6.06666092 3.38640738 6.06666092 3.38640738 9.5625 3 C10.696875 3 11.83125 3 13 3 C13.99 4.485 13.99 4.485 15 6 C14.34 6 13.68 6 13 6 C13 6.99 13 7.98 13 9 C12.01 9.495 12.01 9.495 11 10 C9.95191959 11.97522846 8.9479589 13.97481509 8 16 C6 15 6 15 4 12 C3.34 12 2.68 12 2 12 C1.34 8.04 0.68 4.08 0 0 Z M2 3 C3 5 3 5 3 5 Z M3 5 C3 6.65 3 8.3 3 10 C3.103125 9.360625 3.20625 8.72125 3.3125 8.0625 C3.539375 7.381875 3.76625 6.70125 4 6 C4.99 5.67 5.98 5.34 7 5 C5.68 5 4.36 5 3 5 Z " fill="#1C8153" transform="translate(52,65)"/>
<path d="M0 0 C0.33 0.99 0.66 1.98 1 3 C1.99 2.67 2.98 2.34 4 2 C3.67 2.99 3.34 3.98 3 5 C2.01 5.33 1.02 5.66 0 6 C0.57344937 8.86724686 0.8614515 9.8614515 3 12 C3 12.99 3 13.98 3 15 C0.50638429 13.79618552 -1.68143083 12.54571278 -4 11 C-4.928125 11.99 -4.928125 11.99 -5.875 13 C-8 15 -8 15 -10 15 C-9.40072174 11.64404172 -8.15377564 9.62198774 -6 7 C-6.66 6.38125 -7.32 5.7625 -8 5.125 C-10 3 -10 3 -10 1 C-7 2 -7 2 -5 5 C-1.88667752 4.33131686 -1.88667752 4.33131686 -0.8125 1.9375 C-0.544375 1.298125 -0.27625 0.65875 0 0 Z " fill="#C9B643" transform="translate(50,141)"/>
<path d="M0 0 C3.78452355 0.52562827 6.26514133 1.26514133 9 4 C9.75 6.6875 9.75 6.6875 10 9 C9.34 9 8.68 9 8 9 C8.33 11.97 8.66 14.94 9 18 C7.68 18 6.36 18 5 18 C4.896875 17.05125 4.79375 16.1025 4.6875 15.125 C4.31460705 11.70892499 4.31460705 11.70892499 1 10 C1.33 9.34 1.66 8.68 2 8 C1.6425235 6.06874034 1.6425235 6.06874034 1 4 C0.66666667 2.66666667 0.33333333 1.33333333 0 0 Z " fill="#CCB65B" transform="translate(80,139)"/>
<path d="M0 0 C2 1 4 2 6 3 C6.59355614 5.64860427 6.74209269 8.29197322 7 11 C6.01 11 5.02 11 4 11 C4 9.35 4 7.7 4 6 C2.02 6 0.04 6 -2 6 C-2 7.98 -2 9.96 -2 12 C-3.32 12 -4.64 12 -6 12 C-6.375 8.8125 -6.375 8.8125 -6 5 C-4.18811972 2.8596502 -2.34198833 1.61011698 0 0 Z " fill="#E2BB40" transform="translate(69,144)"/>
<path d="M0 0 C3.63 0 7.26 0 11 0 C12.37058195 4.11174586 11.75640862 6.73660595 11 11 C10.01 11.495 10.01 11.495 9 12 C8.67 11.01 8.34 10.02 8 9 C6.35 9.33 4.7 9.66 3 10 C3 9.34 3 8.68 3 8 C1.68 8 0.36 8 -1 8 C-0.67 6.35 -0.34 4.7 0 3 C2.97 3.495 2.97 3.495 6 4 C6 3.01 6 2.02 6 1 C4.02 1 2.04 1 0 1 C0 0.67 0 0.34 0 0 Z " fill="#DBC75B" transform="translate(148,141)"/>
<path d="M0 0 C0.99 0 1.98 0 3 0 C5.0601319 6.04305356 6.12371581 10.56677796 6 17 C3.36 17 0.72 17 -2 17 C-2 16.34 -2 15.68 -2 15 C-0.68 15 0.64 15 2 15 C1.86722656 14.40832031 1.73445313 13.81664062 1.59765625 13.20703125 C1.23460167 11.58256077 0.87400476 9.95753945 0.515625 8.33203125 C0.12226508 6.55297161 -0.28050244 4.77598936 -0.6875 3 C-0.8421875 2.01 -0.8421875 2.01 -1 1 C-0.67 0.67 -0.34 0.34 0 0 Z " fill="#D7BC51" transform="translate(74,140)"/>
<path d="M0 0 C3.5625 0.3125 3.5625 0.3125 5.375 1.8125 C5.766875 2.3075 6.15875 2.8025 6.5625 3.3125 C7.2225 3.3125 7.8825 3.3125 8.5625 3.3125 C8.5625 5.2925 8.5625 7.2725 8.5625 9.3125 C7.5725 9.3125 6.5825 9.3125 5.5625 9.3125 C5.5625 8.6525 5.5625 7.9925 5.5625 7.3125 C4.9025 7.3125 4.2425 7.3125 3.5625 7.3125 C3.5625 6.6525 3.5625 5.9925 3.5625 5.3125 C2.5725 5.3125 1.5825 5.3125 0.5625 5.3125 C0.2325 5.9725 -0.0975 6.6325 -0.4375 7.3125 C-0.4375 6.6525 -0.4375 5.9925 -0.4375 5.3125 C-2.4175 5.3125 -4.3975 5.3125 -6.4375 5.3125 C-5.04248457 1.12745371 -4.45249125 0.40477193 0 0 Z " fill="#CEB75E" transform="translate(170.4375,138.6875)"/>
<path d="M0 0 C0.66 0.33 1.32 0.66 2 1 C2 1.66 2 2.32 2 3 C3.32 3 4.64 3 6 3 C6 4.32 6 5.64 6 7 C6.99 6.67 7.98 6.34 9 6 C9.33 7.65 9.66 9.3 10 11 C9.34 11 8.68 11 8 11 C8 11.66 8 12.32 8 13 C5.83125748 12.49396008 4.00032373 12.00016187 2 11 C1.59270772 8.67843403 1.25561323 6.3431213 1 4 C0.34 5.32 -0.32 6.64 -1 8 C-1.04241723 5.66705225 -1.04092937 3.33297433 -1 1 C-0.67 0.67 -0.34 0.34 0 0 Z " fill="#CFB45F" transform="translate(160,144)"/>
<path d="M0 0 C0.33 0.66 0.66 1.32 1 2 C2.65 2 4.3 2 6 2 C6.33 1.34 6.66 0.68 7 0 C7.99 1.98 8.98 3.96 10 6 C9 7 9 7 6.49609375 7.09765625 C4.98208984 7.08025391 4.98208984 7.08025391 3.4375 7.0625 C2.42558594 7.05347656 1.41367188 7.04445312 0.37109375 7.03515625 C-0.41136719 7.02355469 -1.19382812 7.01195312 -2 7 C-1.125 2.25 -1.125 2.25 0 0 Z " fill="#81A64B" transform="translate(106,149)"/>
<path d="M0 0 C0.721875 0.66 1.44375 1.32 2.1875 2 C5.21597933 4.1535853 6.39703406 4.41176754 10 4 C9.67 4.66 9.34 5.32 9 6 C6.50682319 6.36891876 4.13229712 6.60552749 1.625 6.75 C0.59632812 6.83314453 0.59632812 6.83314453 -0.453125 6.91796875 C-4.26776121 7.1628773 -5.72964463 7.18023691 -9 5 C-8.34 4.34 -7.68 3.68 -7 3 C-7 3.66 -7 4.32 -7 5 C-4.37098712 3.47793991 -2.15634036 2.15634036 0 0 Z " fill="#23915D" transform="translate(46,151)"/>
<path d="M0 0 C0.33 0 0.66 0 1 0 C1 13.86 1 27.72 1 42 C0.67 42 0.34 42 0 42 C-0.16982027 37.78684004 -0.33010041 33.57344808 -0.48217773 29.35961914 C-0.53500117 27.9311385 -0.59026993 26.50274582 -0.64819336 25.07446289 C-0.98827663 16.64335491 -1.07000657 8.39603694 0 0 Z " fill="#052A17" transform="translate(161,92)"/>
<path d="M0 0 C0.99 0 1.98 0 3 0 C3 0.66 3 1.32 3 2 C4.32 2.66 5.64 3.32 7 4 C6.42805835 7.31726155 5.42999536 8.72635823 3 11 C2.49632243 9.54293274 1.99717444 8.08429904 1.5 6.625 C1.2215625 5.81289062 0.943125 5.00078125 0.65625 4.1640625 C0 2 0 2 0 0 Z " fill="#609D50" transform="translate(88,139)"/>
<path d="M0 0 C0.33 0 0.66 0 1 0 C1 14.19 1 28.38 1 43 C0.67 43 0.34 43 0 43 C0 28.81 0 14.62 0 0 Z " fill="#3C816E" transform="translate(126,92)"/>
<path d="M0 0 C0.33 0 0.66 0 1 0 C1 14.19 1 28.38 1 43 C0.67 43 0.34 43 0 43 C0 28.81 0 14.62 0 0 Z " fill="#20843C" transform="translate(178,92)"/>
<path d="M0 0 C0.66 0.33 1.32 0.66 2 1 C1.67 1.99 1.34 2.98 1 4 C2.98 4 4.96 4 7 4 C3.8657518 6.0894988 0.73890554 7.56445886 -2.6875 9.125 C-3.86699219 9.66382812 -5.04648438 10.20265625 -6.26171875 10.7578125 C-7.16535156 11.16773437 -8.06898437 11.57765625 -9 12 C-9 11.01 -9 10.02 -9 9 C-8.34 9.33 -7.68 9.66 -7 10 C-6.67 9.01 -6.34 8.02 -6 7 C-4.3540349 5.31288577 -2.68762851 3.6454378 -1 2 C-0.67 1.34 -0.34 0.68 0 0 Z " fill="#B9B158" transform="translate(121,63)"/>
<path d="M0 0 C0.33 0.66 0.66 1.32 1 2 C1.66 2 2.32 2 3 2 C3 4.64 3 7.28 3 10 C1.35 10 -0.3 10 -2 10 C-2 7.36 -2 4.72 -2 2 C-1.34 2 -0.68 2 0 2 C0 1.34 0 0.68 0 0 Z " fill="#599D52" transform="translate(109,141)"/>
<path d="M0 0 C0.33 0 0.66 0 1 0 C1 13.86 1 27.72 1 42 C0.67 42 0.34 42 0 42 C0 28.14 0 14.28 0 0 Z " fill="#009A8E" transform="translate(130,93)"/>
<path d="M0 0 C0.33 1.32 0.66 2.64 1 4 C2.32 4.33 3.64 4.66 5 5 C4.67 5.66 4.34 6.32 4 7 C3.67 6.67 3.34 6.34 3 6 C2.34 7.98 1.68 9.96 1 12 C1.66 12 2.32 12 3 12 C3 13.32 3 14.64 3 16 C2.34 16 1.68 16 1 16 C1 16.66 1 17.32 1 18 C0.34 17.67 -0.32 17.34 -1 17 C-0.67 16.34 -0.34 15.68 0 15 C0.66 15 1.32 15 2 15 C2 14.34 2 13.68 2 13 C0.68 13.33 -0.64 13.66 -2 14 C-2.33 12.68 -2.66 11.36 -3 10 C-2.34 9.67 -1.68 9.34 -1 9 C-0.53348793 6.87423218 -0.53348793 6.87423218 -0.375 4.4375 C-0.30023438 3.61121094 -0.22546875 2.78492187 -0.1484375 1.93359375 C-0.09945312 1.29550781 -0.05046875 0.65742187 0 0 Z " fill="#287D4F" transform="translate(56,81)"/>
<path d="M0 0 C0.33 0 0.66 0 1 0 C1 13.2 1 26.4 1 40 C0.67 40 0.34 40 0 40 C0 26.8 0 13.6 0 0 Z " fill="#0B7F3D" transform="translate(34,83)"/>
<path d="M0 0 C1.875 0.5625 1.875 0.5625 4 2 C5.25 5.625 5.25 5.625 6 9 C4.02 8.34 2.04 7.68 0 7 C-1.32 8.32 -2.64 9.64 -4 11 C-4.66 10.67 -5.32 10.34 -6 10 C-4.02 7.69 -2.04 5.38 0 3 C-0.66 2.67 -1.32 2.34 -2 2 C-1.34 1.34 -0.68 0.68 0 0 Z " fill="#CBB65D" transform="translate(69,138)"/>
<path d="M0 0 C3.63 0 7.26 0 11 0 C12.37058195 4.11174586 11.75640862 6.73660595 11 11 C10.01 11.495 10.01 11.495 9 12 C9.33 9.69 9.66 7.38 10 5 C8.68 4.67 7.36 4.34 6 4 C6 3.01 6 2.02 6 1 C4.02 1 2.04 1 0 1 C0 0.67 0 0.34 0 0 Z " fill="#E3C750" transform="translate(148,141)"/>
<path d="M0 0 C-4.40625199 2.44576652 -8.61675414 2.74540777 -13.5625 3.25 C-14.42552734 3.353125 -15.28855469 3.45625 -16.17773438 3.5625 C-17.00724609 3.65015625 -17.83675781 3.7378125 -18.69140625 3.828125 C-19.82364624 3.9504248 -19.82364624 3.9504248 -20.97875977 4.07519531 C-23 4 -23 4 -26 2 C-23.00994472 1.11936728 -20.48151777 0.94613207 -17.375 1.0625 C-12.71578501 1.13162782 -8.54958323 0.43368075 -4.03125 -0.66015625 C-2 -1 -2 -1 0 0 Z " fill="#D4BB58" transform="translate(30,129)"/>
<path d="M0 0 C0.66 0 1.32 0 2 0 C3 1 4 2 5 3 C5.66 3 6.32 3 7 3 C6.67 3.99 6.34 4.98 6 6 C3.4375 7.1875 3.4375 7.1875 1 8 C1 7.34 1 6.68 1 6 C-0.98 6 -2.96 6 -5 6 C-4.67 5.34 -4.34 4.68 -4 4 C-3.34 4 -2.68 4 -2 4 C-1.67 3.34 -1.34 2.68 -1 2 C-0.67 1.34 -0.34 0.68 0 0 Z " fill="#C8B45B" transform="translate(154,149)"/>
<path d="M0 0 C0 3 0 3 -2.08203125 5.41015625 C-2.98308594 6.28542969 -3.88414063 7.16070312 -4.8125 8.0625 C-5.70582031 8.94035156 -6.59914063 9.81820312 -7.51953125 10.72265625 C-10 13 -10 13 -13 15 C-13.99 14.67 -14.98 14.34 -16 14 C-15.34773438 13.49210937 -14.69546875 12.98421875 -14.0234375 12.4609375 C-9.04494408 8.53982321 -4.36533967 4.59509439 0 0 Z " fill="#83A14F" transform="translate(88,105)"/>
<path d="M0 0 C0.66 0 1.32 0 2 0 C2.103125 0.639375 2.20625 1.27875 2.3125 1.9375 C2.539375 2.618125 2.76625 3.29875 3 4 C3.99 4.33 4.98 4.66 6 5 C6.6875 7.0625 6.6875 7.0625 7 9 C5.02 9 3.04 9 1 9 C0.67 6.03 0.34 3.06 0 0 Z " fill="#E1BB42" transform="translate(88,148)"/>
<path d="M0 0 C0 3 0 3 -1.20703125 4.60546875 C-1.73683594 5.12753906 -2.26664062 5.64960938 -2.8125 6.1875 C-3.33457031 6.71730469 -3.85664062 7.24710938 -4.39453125 7.79296875 C-6 9 -6 9 -9 9 C-7.55536047 5.62917442 -5.75336875 3.41962708 -3 1 C-2.01 0.67 -1.02 0.34 0 0 Z " fill="#DEBC4A" transform="translate(69,140)"/>
<path d="M0 0 C9.9 0 19.8 0 30 0 C30 0.33 30 0.66 30 1 C20.1 1 10.2 1 0 1 C0 0.67 0 0.34 0 0 Z " fill="#000000" transform="translate(28,159)"/>
<path d="M0 0 C0.66 0 1.32 0 2 0 C2 2.64 2 5.28 2 8 C0.68 8 -0.64 8 -2 8 C-2 7.34 -2 6.68 -2 6 C-2.66 6 -3.32 6 -4 6 C-4.33 4.68 -4.66 3.36 -5 2 C-3.68 2 -2.36 2 -1 2 C-0.67 1.34 -0.34 0.68 0 0 Z " fill="#D3B261" transform="translate(175,149)"/>
<path d="M0 0 C0.66 0.33 1.32 0.66 2 1 C2 1.66 2 2.32 2 3 C3.32 3 4.64 3 6 3 C6 4.32 6 5.64 6 7 C4.68 6.67 3.36 6.34 2 6 C1.67 6.66 1.34 7.32 1 8 C1 6.68 1 5.36 1 4 C0.34 5.32 -0.32 6.64 -1 8 C-1.04241723 5.66705225 -1.04092937 3.33297433 -1 1 C-0.67 0.67 -0.34 0.34 0 0 Z " fill="#CBB74B" transform="translate(160,144)"/>
<path d="M0 0 C9.24 0 18.48 0 28 0 C28 0.33 28 0.66 28 1 C18.76 1 9.52 1 0 1 C0 0.67 0 0.34 0 0 Z " fill="#000000" transform="translate(96,159)"/>
<path d="M0 0 C3.3 0 6.6 0 10 0 C10 0.66 10 1.32 10 2 C10.99 1.67 11.98 1.34 13 1 C13 1.66 13 2.32 13 3 C9.04 3 5.08 3 1 3 C0.67 2.01 0.34 1.02 0 0 Z " fill="#C1AC52" transform="translate(125,154)"/>
<path d="M0 0 C0.99 0 1.98 0 3 0 C2.42655063 2.86724686 2.1385485 3.8614515 0 6 C-1.32 6 -2.64 6 -4 6 C-2.84826645 3.53199953 -1.95216435 1.95216435 0 0 Z " fill="#E1BF4E" transform="translate(137,140)"/>
<path d="M0 0 C-0.75 2.4375 -0.75 2.4375 -2 5 C-4.125 5.8125 -4.125 5.8125 -6 6 C-6.66 4.35 -7.32 2.7 -8 1 C-5.07175348 0.02391783 -3.04386724 -0.08226668 0 0 Z " fill="#227956" transform="translate(91,33)"/>
<path d="M0 0 C2.34023315 0.28082798 4.67305036 0.62468554 7 1 C8.299375 1.185625 9.59875 1.37125 10.9375 1.5625 C11.948125 1.706875 12.95875 1.85125 14 2 C14 2.33 14 2.66 14 3 C11.87527424 3.05386629 9.75016348 3.09273071 7.625 3.125 C5.84996094 3.15980469 5.84996094 3.15980469 4.0390625 3.1953125 C1 3 1 3 -1 1 C-0.67 0.67 -0.34 0.34 0 0 Z " fill="#2A784C" transform="translate(26,155)"/>
<path d="M0 0 C2.5 2.3125 2.5 2.3125 5 5 C5 5.99 5 6.98 5 8 C1.63279613 6.60667426 0.0140476 5.0210714 -2 2 C-1.34 2 -0.68 2 0 2 C0 1.34 0 0.68 0 0 Z " fill="#B7B143" transform="translate(48,148)"/>
<path d="M0 0 C1.98 0.495 1.98 0.495 4 1 C4 2.98 4 4.96 4 7 C3.01 7 2.02 7 1 7 C1 6.34 1 5.68 1 5 C0.34 5 -0.32 5 -1 5 C-0.67 3.35 -0.34 1.7 0 0 Z " fill="#BEAA50" transform="translate(175,141)"/>
<path d="M0 0 C2.31 0.66 4.62 1.32 7 2 C6.67 2.66 6.34 3.32 6 4 C3.69 4 1.38 4 -1 4 C-0.67 2.68 -0.34 1.36 0 0 Z " fill="#CAB962" transform="translate(127,140)"/>
<path d="M0 0 C0.33 0 0.66 0 1 0 C1 7.59 1 15.18 1 23 C0.67 23 0.34 23 0 23 C0 15.41 0 7.82 0 0 Z " fill="#138441" transform="translate(146,112)"/>
<path d="M0 0 C0.99 0.99 1.98 1.98 3 3 C2.85546875 5.26171875 2.85546875 5.26171875 2.1875 7.6875 C1.86845703 8.89986328 1.86845703 8.89986328 1.54296875 10.13671875 C1.27419922 11.05904297 1.27419922 11.05904297 1 12 C0.67 12 0.34 12 0 12 C0 8.04 0 4.08 0 0 Z " fill="#1C784E" transform="translate(36,82)"/>
<path d="M0 0 C3.2542015 2.83430453 4.5206753 4.68607774 5 9 C2.525 8.01 2.525 8.01 0 7 C0.66 6.67 1.32 6.34 2 6 C1.34 4.02 0.68 2.04 0 0 Z " fill="#268352" transform="translate(48,90)"/>
<path d="M0 0 C1.65 0 3.3 0 5 0 C5.33 0.99 5.66 1.98 6 3 C3.69 3 1.38 3 -1 3 C-0.67 2.01 -0.34 1.02 0 0 Z " fill="#D6BA41" transform="translate(107,151)"/>
<path d="M0 0 C2.31 0 4.62 0 7 0 C6.67 0.99 6.34 1.98 6 3 C4.02 3 2.04 3 0 3 C0 2.01 0 1.02 0 0 Z " fill="#E5B13D" transform="translate(167,139)"/>
<path d="M0 0 C0.33 0 0.66 0 1 0 C1.33 4.95 1.66 9.9 2 15 C1.01 15.495 1.01 15.495 0 16 C0 10.72 0 5.44 0 0 Z " fill="#3B934B" transform="translate(60,130)"/>
<path d="M0 0 C4.29 0 8.58 0 13 0 C13 0.33 13 0.66 13 1 C4.57142857 2.28571429 4.57142857 2.28571429 0 1 C0 0.67 0 0.34 0 0 Z " fill="#33A135" transform="translate(164,136)"/>
<path d="M0 0 C1.4370809 -0.05422947 2.87475462 -0.09289723 4.3125 -0.125 C5.11300781 -0.14820312 5.91351563 -0.17140625 6.73828125 -0.1953125 C9 0 9 0 12 2 C7.71 2 3.42 2 -1 2 C-0.67 1.34 -0.34 0.68 0 0 Z " fill="#5C9E45" transform="translate(165,89)"/>
<path d="M0 0 C4.29 0 8.58 0 13 0 C13 0.33 13 0.66 13 1 C8.71 1 4.42 1 0 1 C0 0.67 0 0.34 0 0 Z " fill="#00853B" transform="translate(132,136)"/>
<path d="M0 0 C4.29 0 8.58 0 13 0 C13 0.33 13 0.66 13 1 C8.71 1 4.42 1 0 1 C0 0.67 0 0.34 0 0 Z " fill="#CDC03D" transform="translate(142,54)"/>
<path d="M0 0 C1.32 0.33 2.64 0.66 4 1 C3.67 3.64 3.34 6.28 3 9 C2.67 9 2.34 9 2 9 C2 6.36 2 3.72 2 1 C1.34 0.67 0.68 0.34 0 0 Z " fill="#539042" transform="translate(32,136)"/>
<path d="M0 0 C3.96 0 7.92 0 12 0 C12 0.33 12 0.66 12 1 C8.04 1 4.08 1 0 1 C0 0.67 0 0.34 0 0 Z " fill="#00703B" transform="translate(132,90)"/>
<path d="M0 0 C0.33 0 0.66 0 1 0 C1 3.63 1 7.26 1 11 C0.67 11 0.34 11 0 11 C0 7.37 0 3.74 0 0 Z " fill="#0B9A4C" transform="translate(77,64)"/>
<path d="M0 0 C3.3 0 6.6 0 10 0 C10 0.33 10 0.66 10 1 C6.7 1 3.4 1 0 1 C0 0.67 0 0.34 0 0 Z " fill="#E5CB4C" transform="translate(21,137)"/>
<path d="M0 0 C3.3 0 6.6 0 10 0 C10 0.33 10 0.66 10 1 C6.7 1 3.4 1 0 1 C0 0.67 0 0.34 0 0 Z " fill="#DFCE3D" transform="translate(8,129)"/>
<path d="M0 0 C2.97 0 5.94 0 9 0 C9 0.33 9 0.66 9 1 C6.03 1 3.06 1 0 1 C0 0.67 0 0.34 0 0 Z " fill="#FFFF7F" transform="translate(127,158)"/>
<path d="M0 0 C2.64 0 5.28 0 8 0 C8 0.33 8 0.66 8 1 C5.36 1 2.72 1 0 1 C0 0.67 0 0.34 0 0 Z " fill="#E4C92A" transform="translate(147,138)"/>
<path d="M0 0 C2.64 0 5.28 0 8 0 C8 0.33 8 0.66 8 1 C5.36 1 2.72 1 0 1 C0 0.67 0 0.34 0 0 Z " fill="#2A7449" transform="translate(152,89)"/>
<path d="M0 0 C0.33 1.32 0.66 2.64 1 4 C0.01 4.33 -0.98 4.66 -2 5 C-1.34 3.35 -0.68 1.7 0 0 Z " fill="#7F974A" transform="translate(108,80)"/>
<path d="M0 0 C2.64 0 5.28 0 8 0 C8 0.33 8 0.66 8 1 C5.36 1 2.72 1 0 1 C0 0.67 0 0.34 0 0 Z " fill="#1F8949" transform="translate(18,41)"/>
<path d="M0 0 C2.31 0 4.62 0 7 0 C7 0.33 7 0.66 7 1 C4.69 1 2.38 1 0 1 C0 0.67 0 0.34 0 0 Z " fill="#ECA930" transform="translate(131,67)"/>
<path d="M0 0 C0.33 0 0.66 0 1 0 C1 2.31 1 4.62 1 7 C0.67 7 0.34 7 0 7 C0 4.69 0 2.38 0 0 Z " fill="#C58B4E" transform="translate(129,21)"/>
<path d="M0 0 C1.98 0 3.96 0 6 0 C6 0.33 6 0.66 6 1 C4.02 1 2.04 1 0 1 C0 0.67 0 0.34 0 0 Z " fill="#FFE900" transform="translate(88,158)"/>
<path d="M0 0 C1.98 0 3.96 0 6 0 C6 0.33 6 0.66 6 1 C4.02 1 2.04 1 0 1 C0 0.67 0 0.34 0 0 Z " fill="#D4D400" transform="translate(72,158)"/>
<path d="M0 0 C1.98 0 3.96 0 6 0 C6 0.33 6 0.66 6 1 C4.02 1 2.04 1 0 1 C0 0.67 0 0.34 0 0 Z " fill="#FFD400" transform="translate(62,158)"/>
<path d="M0 0 C1.98 0 3.96 0 6 0 C6 0.33 6 0.66 6 1 C4.02 1 2.04 1 0 1 C0 0.67 0 0.34 0 0 Z " fill="#DBCD46" transform="translate(14,136)"/>
<path d="M0 0 C1.98 0 3.96 0 6 0 C6 0.33 6 0.66 6 1 C4.02 1 2.04 1 0 1 C0 0.67 0 0.34 0 0 Z " fill="#E6DB23" transform="translate(18,128)"/>
<path d="M0 0 C1.98 0 3.96 0 6 0 C6 0.33 6 0.66 6 1 C4.02 1 2.04 1 0 1 C0 0.67 0 0.34 0 0 Z " fill="#2A9474" transform="translate(151,105)"/>
<path d="M0 0 C1.98 0.99 1.98 0.99 4 2 C2.68 2 1.36 2 0 2 C0 1.34 0 0.68 0 0 Z " fill="#108232" transform="translate(112,89)"/>
<path d="M0 0 C0 0.66 0 1.32 0 2 C-1.32 1.67 -2.64 1.34 -4 1 C-2 0 -2 0 0 0 Z " fill="#89D038" transform="translate(122,71)"/>
<path d="M0 0 C1.98 0 3.96 0 6 0 C6 0.33 6 0.66 6 1 C4.02 1 2.04 1 0 1 C0 0.67 0 0.34 0 0 Z " fill="#9B9B38" transform="translate(145,67)"/>
<path d="M0 0 C1.65 0 3.3 0 5 0 C4.01 0.66 3.02 1.32 2 2 C1.34 1.34 0.68 0.68 0 0 Z " fill="#14906E" transform="translate(59,66)"/>
<path d="M0 0 C1.98 0 3.96 0 6 0 C6 0.33 6 0.66 6 1 C4.02 1 2.04 1 0 1 C0 0.67 0 0.34 0 0 Z " fill="#FFBF00" transform="translate(139,66)"/>
<path d="M0 0 C0.33 0 0.66 0 1 0 C1 1.98 1 3.96 1 6 C0.67 6 0.34 6 0 6 C0 4.02 0 2.04 0 0 Z " fill="#E9B038" transform="translate(133,47)"/>
<path d="M0 0 C0.33 0 0.66 0 1 0 C1 1.98 1 3.96 1 6 C0.67 6 0.34 6 0 6 C0 4.02 0 2.04 0 0 Z " fill="#F4E938" transform="translate(132,41)"/>
<path d="M0 0 C0.33 0 0.66 0 1 0 C1 1.98 1 3.96 1 6 C0.67 6 0.34 6 0 6 C0 4.02 0 2.04 0 0 Z " fill="#D08D46" transform="translate(131,34)"/>
<path d="M0 0 C0.33 0 0.66 0 1 0 C1 1.98 1 3.96 1 6 C0.67 6 0.34 6 0 6 C0 4.02 0 2.04 0 0 Z " fill="#FFC638" transform="translate(130,28)"/>
<path d="M0 0 C0.66 0 1.32 0 2 0 C1.67 1.32 1.34 2.64 1 4 C0.67 2.68 0.34 1.36 0 0 Z " fill="#F2E565" transform="translate(177,151)"/>
<path d="M0 0 C0 0.99 0 1.98 0 3 C-0.66 2.67 -1.32 2.34 -2 2 C-1.34 1.34 -0.68 0.68 0 0 Z " fill="#B2A525" transform="translate(91,102)"/>
<path d="M0 0 C0.66 0.66 1.32 1.32 2 2 C0.68 1.67 -0.64 1.34 -2 1 C-1.34 0.67 -0.68 0.34 0 0 Z " fill="#128C5C" transform="translate(123,89)"/>
<path d="M0 0 C0.33 0 0.66 0 1 0 C1 1.65 1 3.3 1 5 C0.67 5 0.34 5 0 5 C0 3.35 0 1.7 0 0 Z " fill="#CCCC33" transform="translate(160,79)"/>
<path d="M0 0 C0.33 0 0.66 0 1 0 C1 1.65 1 3.3 1 5 C0.67 5 0.34 5 0 5 C0 3.35 0 1.7 0 0 Z " fill="#0C7648" transform="translate(78,59)"/>
<path d="M0 0 C1.65 0 3.3 0 5 0 C5 0.33 5 0.66 5 1 C3.35 1 1.7 1 0 1 C0 0.67 0 0.34 0 0 Z " fill="#E5D443" transform="translate(100,43)"/>
<path d="M0 0 C4 1 4 1 4 1 Z " fill="#FFBF3F" transform="translate(149,159)"/>
<path d="M0 0 C4 1 4 1 4 1 Z " fill="#74B256" transform="translate(38,135)"/>
<path d="M0 0 C4 1 4 1 4 1 Z " fill="#EFAF4F" transform="translate(10,135)"/>
<path d="M0 0 C4 1 4 1 4 1 Z " fill="#EFD944" transform="translate(24,127)"/>
<path d="M0 0 C0.66 0.66 1.32 1.32 2 2 C1.01 2.495 1.01 2.495 0 3 C0 2.01 0 1.02 0 0 Z " fill="#006549" transform="translate(145,92)"/>
<path d="M0 0 C1.485 0.99 1.485 0.99 3 2 C2.01 2 1.02 2 0 2 C0 1.34 0 0.68 0 0 Z " fill="#E9942A" transform="translate(131,56)"/>
<path d="M0 0 C1 4 1 4 1 4 Z " fill="#1F5F3F" transform="translate(79,55)"/>
<path d="M0 0 C4 1 4 1 4 1 Z " fill="#EFC43A" transform="translate(155,55)"/>
<path d="M0 0 C4 1 4 1 4 1 Z " fill="#EFC43A" transform="translate(137,55)"/>
<path d="M0 0 C4 1 4 1 4 1 Z " fill="#1FBF5F" transform="translate(55,54)"/>
<path d="M0 0 C4 1 4 1 4 1 Z " fill="#0FA944" transform="translate(50,54)"/>
<path d="M0 0 C4 1 4 1 4 1 Z " fill="#008A25" transform="translate(26,42)"/>
<path d="M0 0 C3 1 3 1 3 1 Z " fill="#E9BF15" transform="translate(153,158)"/>
<path d="" fill="#D4A954" transform="translate(0,0)"/>
<path d="M0 0 C0.66 0 1.32 0 2 0 C1.67 0.66 1.34 1.32 1 2 C0.67 1.34 0.34 0.68 0 0 Z " fill="#FFA231" transform="translate(78,144)"/>
<path d="" fill="#E9BF69" transform="translate(0,0)"/>
<path d="M0 0 C3 1 3 1 3 1 Z " fill="#FFFF54" transform="translate(137,138)"/>
<path d="M0 0 C3 1 3 1 3 1 Z " fill="#C6C655" transform="translate(74,138)"/>
<path d="M0 0 C3 1 3 1 3 1 Z " fill="#85AE50" transform="translate(42,134)"/>
<path d="M0 0 C3 1 3 1 3 1 Z " fill="#CD7831" transform="translate(7,134)"/>
<path d="M0 0 C3 1 3 1 3 1 Z " fill="#AAC638" transform="translate(45,133)"/>
<path d="M0 0 C3 1 3 1 3 1 Z " fill="#79AF42" transform="translate(48,132)"/>
<path d="M0 0 C3 1 3 1 3 1 Z " fill="#CDCD31" transform="translate(28,126)"/>
<path d="M0 0 C3 1 3 1 3 1 Z " fill="#8D8D38" transform="translate(31,125)"/>
<path d="M0 0 C3 1 3 1 3 1 Z " fill="#008D1C" transform="translate(149,90)"/>
<path d="" fill="#00A994" transform="translate(0,0)"/>
<path d="M0 0 C0.66 0 1.32 0 2 0 C1.67 0.66 1.34 1.32 1 2 C0.67 1.34 0.34 0.68 0 0 Z " fill="#006346" transform="translate(124,75)"/>
<path d="" fill="#007F69" transform="translate(0,0)"/>
<path d="M0 0 C3 1 3 1 3 1 Z " fill="#FFB81C" transform="translate(122,70)"/>
<path d="M0 0 C3 1 3 1 3 1 Z " fill="#94943F" transform="translate(125,69)"/>
<path d="M0 0 C3 1 3 1 3 1 Z " fill="#A2A25B" transform="translate(152,68)"/>
<path d="M0 0 C3 1 3 1 3 1 Z " fill="#E9CD31" transform="translate(128,68)"/>
<path d="" fill="#157F69" transform="translate(0,0)"/>
<path d="M0 0 C0.99 0.495 0.99 0.495 2 1 C1.01 1.495 1.01 1.495 0 2 C0 1.34 0 0.68 0 0 Z " fill="#006331" transform="translate(93,58)"/>
<path d="M0 0 C3 1 3 1 3 1 Z " fill="#BFBF69" transform="translate(159,56)"/>
<path d="M0 0 C3 1 3 1 3 1 Z " fill="#E9BF3F" transform="translate(134,56)"/>
<path d="M0 0 C3 1 3 1 3 1 Z " fill="#00A93F" transform="translate(97,55)"/>
<path d="" fill="#E9BF15" transform="translate(0,0)"/>
<path d="" fill="#007F69" transform="translate(0,0)"/>
<path d="" fill="#000000" transform="translate(0,0)"/>
<path d="" fill="#007F69" transform="translate(0,0)"/>
<path d="M0 0 C3 1 3 1 3 1 Z " fill="#1C8D46" transform="translate(83,32)"/>
<path d="M0 0 C3 1 3 1 3 1 Z " fill="#15A93F" transform="translate(86,31)"/>
<path d="M0 0 C3 1 3 1 3 1 Z " fill="#008D5B" transform="translate(56,30)"/>
<path d="M0 0 C3 1 3 1 3 1 Z " fill="#007F69" transform="translate(50,30)"/>
<path d="M0 0 C3 1 3 1 3 1 Z " fill="#000000" transform="translate(53,29)"/>
<path d="M0 0 C2 1 2 1 2 1 Z " fill="#D4AA55" transform="translate(147,158)"/>
<path d="M0 0 C2 1 2 1 2 1 Z " fill="#FFFF7F" transform="translate(145,157)"/>
<path d="M0 0 C2 1 2 1 2 1 Z " fill="#007F7F" transform="translate(28,153)"/>
<path d="M0 0 C2 1 2 1 2 1 Z " fill="#D4AA55" transform="translate(82,151)"/>
<path d="" fill="#D4D42A" transform="translate(0,0)"/>
<path d="" fill="#DFB44A" transform="translate(0,0)"/>
<path d="M0 0 C2 1 2 1 2 1 Z " fill="#FF552A" transform="translate(155,139)"/>
<path d="M0 0 C2 1 2 1 2 1 Z " fill="#7F7F00" transform="translate(129,139)"/>
<path d="M0 0 C2 1 2 1 2 1 Z " fill="#7F7F00" transform="translate(69,136)"/>
<path d="" fill="#00946A" transform="translate(0,0)"/>
<path d="M0 0 C2 1 2 1 2 1 Z " fill="#72A15D" transform="translate(51,131)"/>
<path d="M0 0 C2 1 2 1 2 1 Z " fill="#8CA552" transform="translate(53,130)"/>
<path d="M0 0 C2 1 2 1 2 1 Z " fill="#FFBF3F" transform="translate(61,126)"/>
<path d="M0 0 C2 1 2 1 2 1 Z " fill="#FFD42A" transform="translate(63,125)"/>
<path d="M0 0 C2 1 2 1 2 1 Z " fill="#FFD42A" transform="translate(34,124)"/>
<path d="M0 0 C2 1 2 1 2 1 Z " fill="#BFBF3F" transform="translate(66,123)"/>
<path d="M0 0 C2 1 2 1 2 1 Z " fill="#BFBF3F" transform="translate(69,121)"/>
<path d="M0 0 C2 1 2 1 2 1 Z " fill="#007F7F" transform="translate(157,106)"/>
<path d="M0 0 C2 1 2 1 2 1 Z " fill="#157F6A" transform="translate(149,106)"/>
<path d="" fill="#007F55" transform="translate(0,0)"/>
<path d="M0 0 C2 1 2 1 2 1 Z " fill="#FFDF1F" transform="translate(159,71)"/>
<path d="M0 0 C2 1 2 1 2 1 Z " fill="#5F5F1F" transform="translate(157,70)"/>
<path d="M0 0 C2 1 2 1 2 1 Z " fill="#DFDF9F" transform="translate(155,69)"/>
<path d="" fill="#00946A" transform="translate(0,0)"/>
<path d="M0 0 C2 1 2 1 2 1 Z " fill="#FFD42A" transform="translate(124,61)"/>
<path d="M0 0 C2 1 2 1 2 1 Z " fill="#BFBF7F" transform="translate(166,59)"/>
<path d="M0 0 C2 1 2 1 2 1 Z " fill="#FF552A" transform="translate(127,59)"/>
<path d="M0 0 C2 1 2 1 2 1 Z " fill="#D4942A" transform="translate(164,58)"/>
<path d="M0 0 C2 1 2 1 2 1 Z " fill="#FFFF2A" transform="translate(129,58)"/>
<path d="M0 0 C2 1 2 1 2 1 Z " fill="#AAAA55" transform="translate(162,57)"/>
<path d="M0 0 C2 1 2 1 2 1 Z " fill="#FFBF3F" transform="translate(129,55)"/>
<path d="" fill="#FFFF00" transform="translate(0,0)"/>
<path d="M0 0 C2 1 2 1 2 1 Z " fill="#00552A" transform="translate(59,53)"/>
<path d="M0 0 C2 1 2 1 2 1 Z " fill="#00D42A" transform="translate(48,53)"/>
<path d="M0 0 C2 1 2 1 2 1 Z " fill="#00BF3F" transform="translate(41,50)"/>
<path d="" fill="#FFAA55" transform="translate(0,0)"/>
<path d="M0 0 C2 1 2 1 2 1 Z " fill="#00BFBF" transform="translate(37,47)"/>
<path d="" fill="#00946A" transform="translate(0,0)"/>
<path d="M0 0 C2 1 2 1 2 1 Z " fill="#00D42A" transform="translate(34,45)"/>
<path d="M0 0 C2 1 2 1 2 1 Z " fill="#00BF7F" transform="translate(32,44)"/>
<path d="M0 0 C2 1 2 1 2 1 Z " fill="#007F5F" transform="translate(30,43)"/>
<path d="M0 0 C2 1 2 1 2 1 Z " fill="#00BF3F" transform="translate(76,36)"/>
<path d="M0 0 C2 1 2 1 2 1 Z " fill="#00D42A" transform="translate(79,34)"/>
<path d="M0 0 C2 1 2 1 2 1 Z " fill="#00BF1F" transform="translate(81,33)"/>
<path d="M0 0 C2 1 2 1 2 1 Z " fill="#FFFF2A" transform="translate(107,32)"/>
<path d="M0 0 C2 1 2 1 2 1 Z " fill="#00D42A" transform="translate(59,31)"/>
<path d="M0 0 C2 1 2 1 2 1 Z " fill="#00946A" transform="translate(48,31)"/>
<path d="M0 0 C2 1 2 1 2 1 Z " fill="#FFFF00" transform="translate(122,20)"/>
<path d="" fill="#FFFF00" transform="translate(0,0)"/>
<path d="" fill="#FFFF00" transform="translate(0,0)"/>
<path d="" fill="#FFFF00" transform="translate(0,0)"/>
<path d="" fill="#000000" transform="translate(0,0)"/>
<path d="" fill="#FFFF7F" transform="translate(0,0)"/>
<path d="" fill="#AAAA55" transform="translate(0,0)"/>
<path d="" fill="#7F7F7F" transform="translate(0,0)"/>
<path d="" fill="#AAAA55" transform="translate(0,0)"/>
<path d="" fill="#FFFF00" transform="translate(0,0)"/>
<path d="" fill="#007F7F" transform="translate(0,0)"/>
<path d="" fill="#7FAA55" transform="translate(0,0)"/>
<path d="" fill="#7FAA55" transform="translate(0,0)"/>
<path d="" fill="#339966" transform="translate(0,0)"/>
<path d="" fill="#7F7F7F" transform="translate(0,0)"/>
<path d="" fill="#AAAA55" transform="translate(0,0)"/>
<path d="" fill="#FFFF00" transform="translate(0,0)"/>
<path d="" fill="#FF7F7F" transform="translate(0,0)"/>
<path d="" fill="#CC9933" transform="translate(0,0)"/>
<path d="" fill="#AAAA55" transform="translate(0,0)"/>
<path d="" fill="#AAAA55" transform="translate(0,0)"/>
<path d="" fill="#3F7F3F" transform="translate(0,0)"/>
<path d="" fill="#CC9933" transform="translate(0,0)"/>
<path d="" fill="#FFAA55" transform="translate(0,0)"/>
<path d="" fill="#FFBF3F" transform="translate(0,0)"/>
<path d="" fill="#FFFF7F" transform="translate(0,0)"/>
<path d="" fill="#FFBF3F" transform="translate(0,0)"/>
<path d="" fill="#BFBF3F" transform="translate(0,0)"/>
<path d="" fill="#FFFF00" transform="translate(0,0)"/>
<path d="" fill="#FFFF00" transform="translate(0,0)"/>
<path d="" fill="#FFFF00" transform="translate(0,0)"/>
<path d="" fill="#FFFF00" transform="translate(0,0)"/>
<path d="" fill="#BFBF3F" transform="translate(0,0)"/>
<path d="" fill="#FFFF00" transform="translate(0,0)"/>
<path d="" fill="#BFBF3F" transform="translate(0,0)"/>
<path d="" fill="#FFFF00" transform="translate(0,0)"/>
<path d="" fill="#FFFFFF" transform="translate(0,0)"/>
<path d="" fill="#FFAA55" transform="translate(0,0)"/>
<path d="" fill="#FF7F7F" transform="translate(0,0)"/>
<path d="" fill="#FFFFFF" transform="translate(0,0)"/>
<path d="" fill="#FFAA55" transform="translate(0,0)"/>
<path d="" fill="#BFBF3F" transform="translate(0,0)"/>
<path d="" fill="#7F7F7F" transform="translate(0,0)"/>
<path d="" fill="#FFFF7F" transform="translate(0,0)"/>
<path d="" fill="#AAAA55" transform="translate(0,0)"/>
<path d="" fill="#FFFF00" transform="translate(0,0)"/>
<path d="" fill="#7F7F7F" transform="translate(0,0)"/>
<path d="" fill="#7F7F7F" transform="translate(0,0)"/>
<path d="" fill="#00AA55" transform="translate(0,0)"/>
<path d="" fill="#FFFF00" transform="translate(0,0)"/>
<path d="" fill="#FFAA55" transform="translate(0,0)"/>
<path d="" fill="#FFAA55" transform="translate(0,0)"/>
<path d="" fill="#BFBF3F" transform="translate(0,0)"/>
<path d="" fill="#FFAA55" transform="translate(0,0)"/>
<path d="" fill="#3F7F3F" transform="translate(0,0)"/>
<path d="" fill="#99CC66" transform="translate(0,0)"/>
<path d="" fill="#2A7F55" transform="translate(0,0)"/>
<path d="" fill="#CC9933" transform="translate(0,0)"/>
<path d="" fill="#24916D" transform="translate(0,0)"/>
<path d="" fill="#CC9933" transform="translate(0,0)"/>
<path d="" fill="#BFBF3F" transform="translate(0,0)"/>
<path d="" fill="#FFAA55" transform="translate(0,0)"/>
<path d="" fill="#1F7F5F" transform="translate(0,0)"/>
<path d="" fill="#BFBF3F" transform="translate(0,0)"/>
<path d="" fill="#00AA55" transform="translate(0,0)"/>
<path d="" fill="#00AA55" transform="translate(0,0)"/>
<path d="" fill="#FFFF7F" transform="translate(0,0)"/>
<path d="" fill="#00AA55" transform="translate(0,0)"/>
<path d="" fill="#999966" transform="translate(0,0)"/>
<path d="" fill="#AAAA55" transform="translate(0,0)"/>
<path d="" fill="#005555" transform="translate(0,0)"/>
<path d="" fill="#919148" transform="translate(0,0)"/>
<path d="" fill="#FFFF55" transform="translate(0,0)"/>
<path d="" fill="#7F9F3F" transform="translate(0,0)"/>
<path d="" fill="#000000" transform="translate(0,0)"/>
<path d="" fill="#00AA55" transform="translate(0,0)"/>
<path d="" fill="#007F7F" transform="translate(0,0)"/>
<path d="" fill="#007F3F" transform="translate(0,0)"/>
<path d="" fill="#00FFFF" transform="translate(0,0)"/>
<path d="" fill="#3F7F3F" transform="translate(0,0)"/>
<path d="" fill="#00AA55" transform="translate(0,0)"/>
<path d="" fill="#007F3F" transform="translate(0,0)"/>
<path d="" fill="#BFBF3F" transform="translate(0,0)"/>
<path d="" fill="#007F3F" transform="translate(0,0)"/>
<path d="" fill="#007F3F" transform="translate(0,0)"/>
<path d="" fill="#007F3F" transform="translate(0,0)"/>
<path d="" fill="#007F3F" transform="translate(0,0)"/>
<path d="" fill="#007F3F" transform="translate(0,0)"/>
<path d="" fill="#249148" transform="translate(0,0)"/>
<path d="" fill="#FFAA55" transform="translate(0,0)"/>
<path d="" fill="#FFFF7F" transform="translate(0,0)"/>
<path d="" fill="#FFFF7F" transform="translate(0,0)"/>
<path d="" fill="#00AA55" transform="translate(0,0)"/>
<path d="" fill="#FF7F7F" transform="translate(0,0)"/>
<path d="" fill="#FFAA55" transform="translate(0,0)"/>
<path d="" fill="#FFFF55" transform="translate(0,0)"/>
<path d="" fill="#AAAA55" transform="translate(0,0)"/>
<path d="" fill="#3F7F3F" transform="translate(0,0)"/>
<path d="" fill="#00AA55" transform="translate(0,0)"/>
<path d="" fill="#007F7F" transform="translate(0,0)"/>
<path d="" fill="#00AA55" transform="translate(0,0)"/>
<path d="" fill="#AAAA55" transform="translate(0,0)"/>
<path d="" fill="#007F3F" transform="translate(0,0)"/>
<path d="" fill="#BFBF3F" transform="translate(0,0)"/>
<path d="" fill="#007F7F" transform="translate(0,0)"/>
<path d="" fill="#005555" transform="translate(0,0)"/>
<path d="" fill="#007F7F" transform="translate(0,0)"/>
<path d="" fill="#00AA55" transform="translate(0,0)"/>
<path d="" fill="#007F7F" transform="translate(0,0)"/>
<path d="" fill="#00AA55" transform="translate(0,0)"/>
<path d="" fill="#007F3F" transform="translate(0,0)"/>
<path d="" fill="#00AA55" transform="translate(0,0)"/>
<path d="" fill="#005555" transform="translate(0,0)"/>
<path d="" fill="#007F3F" transform="translate(0,0)"/>
<path d="" fill="#007F3F" transform="translate(0,0)"/>
<path d="" fill="#000000" transform="translate(0,0)"/>
<path d="" fill="#007F7F" transform="translate(0,0)"/>
<path d="" fill="#AAAA55" transform="translate(0,0)"/>
<path d="" fill="#007F3F" transform="translate(0,0)"/>
<path d="" fill="#00AA55" transform="translate(0,0)"/>
<path d="" fill="#FFBF3F" transform="translate(0,0)"/>
<path d="" fill="#55AA55" transform="translate(0,0)"/>
<path d="" fill="#BF7F3F" transform="translate(0,0)"/>
<path d="" fill="#005555" transform="translate(0,0)"/>
<path d="" fill="#00AA55" transform="translate(0,0)"/>
<path d="" fill="#FFFF7F" transform="translate(0,0)"/>
<path d="" fill="#00AA55" transform="translate(0,0)"/>
<path d="" fill="#00AA55" transform="translate(0,0)"/>
<path d="" fill="#007F7F" transform="translate(0,0)"/>
<path d="" fill="#00AA55" transform="translate(0,0)"/>
<path d="" fill="#FFBF3F" transform="translate(0,0)"/>
<path d="" fill="#FFAA55" transform="translate(0,0)"/>
<path d="" fill="#BFBF3F" transform="translate(0,0)"/>
<path d="" fill="#BF7F3F" transform="translate(0,0)"/>
<path d="" fill="#FFBF3F" transform="translate(0,0)"/>
<path d="" fill="#BFBF3F" transform="translate(0,0)"/>
<path d="" fill="#FFFF7F" transform="translate(0,0)"/>
<path d="" fill="#FFFF00" transform="translate(0,0)"/>
<path d="" fill="#FFFF7F" transform="translate(0,0)"/>
<path d="" fill="#AAAA55" transform="translate(0,0)"/>
<path d="" fill="#000000" transform="translate(0,0)"/>
</svg>
