<?xml version="1.0" encoding="UTF-8"?>
<!DOCTYPE svg PUBLIC "-//W3C//DTD SVG 1.1//EN" "http://www.w3.org/Graphics/SVG/1.1/DTD/svg11.dtd">
<svg xmlns="http://www.w3.org/2000/svg" version="1.1" width="192px" height="192px" style="shape-rendering:geometricPrecision; text-rendering:geometricPrecision; image-rendering:optimizeQuality; fill-rule:evenodd; clip-rule:evenodd" xmlns:xlink="http://www.w3.org/1999/xlink">
<g><path style="opacity:1" fill="#fbf5cb" d="M 28.5,57.5 C 24.1311,57.4672 19.7978,57.8005 15.5,58.5C 17.6345,56.9666 20.1345,56.2999 23,56.5C 25.0326,56.5056 26.866,56.8389 28.5,57.5 Z"/></g>
<g><path style="opacity:1" fill="#fbe7a1" d="M 15.5,58.5 C 14.1667,60.5 12.5,62.1667 10.5,63.5C 11.1667,60.8333 12.8333,59.1667 15.5,58.5 Z"/></g>
<g><path style="opacity:1" fill="#fabd1a" d="M 28.5,57.5 C 28.5,59.8333 28.5,62.1667 28.5,64.5C 25.9407,64.1984 23.6074,64.5318 21.5,65.5C 20.2223,65.7822 19.2223,66.4489 18.5,67.5C 17.7029,75.3464 17.0363,83.3464 16.5,91.5C 15.8333,92.5 15.1667,93.5 14.5,94.5C 12.5168,94.1568 11.1834,94.8235 10.5,96.5C 9.16667,94.8333 7.83333,93.1667 6.5,91.5C 7.96799,90.2209 8.63466,88.5542 8.5,86.5C 9.30376,78.9876 9.97043,71.321 10.5,63.5C 12.5,62.1667 14.1667,60.5 15.5,58.5C 19.7978,57.8005 24.1311,57.4672 28.5,57.5 Z"/></g>
<g><path style="opacity:1" fill="#dcebda" d="M 128.5,65.5 C 126.254,64.8934 123.921,64.56 121.5,64.5C 119.048,64.5391 117.048,65.2057 115.5,66.5C 113.767,65.9924 113.434,65.159 114.5,64C 116.833,63.8333 119.167,63.6667 121.5,63.5C 124.269,63.5286 126.603,64.1952 128.5,65.5 Z"/></g>
<g><path style="opacity:1" fill="#fdd893" d="M 28.5,57.5 C 29.4731,59.9479 29.8064,62.6146 29.5,65.5C 26.8333,65.5 24.1667,65.5 21.5,65.5C 23.6074,64.5318 25.9407,64.1984 28.5,64.5C 28.5,62.1667 28.5,59.8333 28.5,57.5 Z"/></g>
<g><path style="opacity:1" fill="#5b8f55" d="M 65.5,65.5 C 67.3035,64.838 69.3035,64.5046 71.5,64.5C 73.9522,64.5391 75.9522,65.2057 77.5,66.5C 74.1667,70.5 70.5,74.1667 66.5,77.5C 67.4132,75.9139 67.4132,74.4139 66.5,73C 67.7932,72.51 69.1266,72.3433 70.5,72.5C 70.5014,68.7941 68.8347,66.4608 65.5,65.5 Z"/></g>
<g><path style="opacity:1" fill="#92b58f" d="M 119.5,70.5 C 122.764,72.0941 125.431,74.4275 127.5,77.5C 127.833,78.1667 128.167,78.8333 128.5,79.5C 125.215,76.8815 122.215,73.8815 119.5,70.5 Z"/></g>
<g><path style="opacity:1" fill="#fbf7e9" d="M 21.5,65.5 C 21.0133,66.4734 20.5133,67.4734 20,68.5C 19.8267,74.0158 19.3267,79.3491 18.5,84.5C 18.5,78.8333 18.5,73.1667 18.5,67.5C 19.2223,66.4489 20.2223,65.7822 21.5,65.5 Z"/></g>
<g><path style="opacity:1" fill="#7ea678" d="M 131.5,68.5 C 132.239,68.369 132.906,68.5357 133.5,69C 135.21,70.6508 136.544,72.4842 137.5,74.5C 136.065,72.5989 134.398,72.2655 132.5,73.5C 131.761,73.631 131.094,73.4643 130.5,73C 132.782,71.9158 133.116,70.4158 131.5,68.5 Z"/></g>
<g><path style="opacity:1" fill="#337830" d="M 65.5,65.5 C 68.8347,66.4608 70.5014,68.7941 70.5,72.5C 69.1266,72.3433 67.7932,72.51 66.5,73C 67.4132,74.4139 67.4132,75.9139 66.5,77.5C 64.2459,78.4151 62.2459,79.7484 60.5,81.5C 60.6567,80.1266 60.49,78.7932 60,77.5C 58.8687,78.6039 58.0354,78.2705 57.5,76.5C 58.981,75.056 58.6477,74.3894 56.5,74.5C 59.1667,71.1667 62.1667,68.1667 65.5,65.5 Z"/></g>
<g><path style="opacity:1" fill="#3d7e39" d="M 128.5,65.5 C 130.5,65.5 131.5,66.5 131.5,68.5C 133.116,70.4158 132.782,71.9158 130.5,73C 131.094,73.4643 131.761,73.631 132.5,73.5C 131.647,75.8927 129.981,77.226 127.5,77.5C 125.431,74.4275 122.764,72.0941 119.5,70.5C 117.833,69.5 116.5,68.1667 115.5,66.5C 117.048,65.2057 119.048,64.5391 121.5,64.5C 123.921,64.56 126.254,64.8934 128.5,65.5 Z"/></g>
<g><path style="opacity:1" fill="#fad66f" d="M 18.5,67.5 C 18.5,73.1667 18.5,78.8333 18.5,84.5C 18.5905,87.1522 17.9238,89.4855 16.5,91.5C 17.0363,83.3464 17.7029,75.3464 18.5,67.5 Z"/></g>
<g><path style="opacity:1" fill="#417f3c" d="M 137.5,74.5 C 138.239,74.369 138.906,74.5357 139.5,75C 141.21,76.6508 142.544,78.4842 143.5,80.5C 139.018,78.6301 138.018,79.4634 140.5,83C 139.197,83.2098 137.864,83.0431 136.5,82.5C 135.287,82.7472 134.62,83.4138 134.5,84.5C 132.456,82.7806 130.456,81.1139 128.5,79.5C 128.167,78.8333 127.833,78.1667 127.5,77.5C 129.981,77.226 131.647,75.8927 132.5,73.5C 134.398,72.2655 136.065,72.5989 137.5,74.5 Z"/></g>
<g><path style="opacity:1" fill="#f9de91" d="M 10.5,63.5 C 9.97043,71.321 9.30376,78.9876 8.5,86.5C 8.33371,79.4921 8.50038,72.4921 9,65.5C 9.27842,64.5842 9.77842,63.9175 10.5,63.5 Z"/></g>
<g><path style="opacity:1" fill="#f9faf9" d="M 94.5,76.5 C 95.1667,76.5 95.8333,76.5 96.5,76.5C 96.5,78.5 96.5,80.5 96.5,82.5C 95.8333,82.5 95.5,82.1667 95.5,81.5C 95.634,79.7085 95.3007,78.0418 94.5,76.5 Z"/></g>
<g><path style="opacity:1" fill="#fac339" d="M 90.5,81.5 C 88.8958,80.713 88.2291,79.3797 88.5,77.5C 90.0418,76.6993 91.7085,76.366 93.5,76.5C 93.5,78.1667 93.5,79.8333 93.5,81.5C 92.5,81.5 91.5,81.5 90.5,81.5 Z"/></g>
<g><path style="opacity:1" fill="#fadc89" d="M 94.5,76.5 C 95.3007,78.0418 95.634,79.7085 95.5,81.5C 94.8333,81.8333 94.1667,82.1667 93.5,82.5C 91.8041,84.129 90.8041,83.7957 90.5,81.5C 91.5,81.5 92.5,81.5 93.5,81.5C 93.5,79.8333 93.5,78.1667 93.5,76.5C 91.7085,76.366 90.0418,76.6993 88.5,77.5C 90.0127,74.0728 92.0127,73.7394 94.5,76.5 Z"/></g>
<g><path style="opacity:1" fill="#fbeec2" d="M 107.5,76.5 C 110.732,76.7717 112.732,78.4384 113.5,81.5C 111.46,79.823 109.46,78.1563 107.5,76.5 Z"/></g>
<g><path style="opacity:1" fill="#f8d579" d="M 80.5,76.5 C 82.2659,78.7706 84.2659,80.9373 86.5,83C 87.448,83.4828 88.448,83.6495 89.5,83.5C 88.0821,85.3079 86.0821,85.9746 83.5,85.5C 83.5,84.8333 83.1667,84.5 82.5,84.5C 82.5,84.1667 82.5,83.8333 82.5,83.5C 80.5988,82.2563 78.9322,80.7563 77.5,79C 77.7483,77.2509 78.7483,76.4176 80.5,76.5 Z"/></g>
<g><path style="opacity:1" fill="#f9e39c" d="M 107.5,76.5 C 104.102,76.1796 100.768,76.513 97.5,77.5C 101.648,77.9581 105.315,79.4581 108.5,82C 109.337,83.0113 109.67,84.1779 109.5,85.5C 108.167,85.5 106.833,85.5 105.5,85.5C 104.826,80.8486 102.159,79.3486 97.5,81C 99.7075,82.0475 101.374,83.5475 102.5,85.5C 101.662,85.8417 101.328,86.5084 101.5,87.5C 99.6527,84.8285 96.986,83.8285 93.5,84.5C 93.5,84.1667 93.5,83.8333 93.5,83.5C 95.5476,83.8404 96.5476,83.5071 96.5,82.5C 96.5,80.5 96.5,78.5 96.5,76.5C 97.4919,74.9735 98.9919,74.3068 101,74.5C 103.484,74.4967 105.651,75.1634 107.5,76.5 Z"/></g>
<g><path style="opacity:1" fill="#d4e3d3" d="M 143.5,80.5 C 145.5,80.5 146.5,81.5 146.5,83.5C 145.167,82.8333 144.167,81.8333 143.5,80.5 Z"/></g>
<g><path style="opacity:1" fill="#b7ceb5" d="M 77.5,66.5 C 75.9522,65.2057 73.9522,64.5391 71.5,64.5C 69.3035,64.5046 67.3035,64.838 65.5,65.5C 62.1667,68.1667 59.1667,71.1667 56.5,74.5C 49.0351,81.4641 41.7018,88.6308 34.5,96C 36.7032,98.3722 39.0365,100.539 41.5,102.5C 43.6281,105.13 45.9614,107.63 48.5,110C 48.2716,110.399 47.9382,110.565 47.5,110.5C 42.8688,106.37 38.3688,102.037 34,97.5C 33.3333,96.5 33.3333,95.5 34,94.5C 44.1667,84.3333 54.3333,74.1667 64.5,64C 69.1548,63.5008 73.8215,63.3342 78.5,63.5C 78.7373,64.791 78.404,65.791 77.5,66.5 Z"/></g>
<g><path style="opacity:1" fill="#c6d9c6" d="M 128.5,79.5 C 130.456,81.1139 132.456,82.7806 134.5,84.5C 137.902,87.8953 140.902,91.562 143.5,95.5C 137.795,90.796 132.795,85.4626 128.5,79.5 Z"/></g>
<g><path style="opacity:1" fill="#adc9ad" d="M 66.5,77.5 C 63.1667,81.5 59.5,85.1667 55.5,88.5C 56.7536,85.9066 58.4202,83.5732 60.5,81.5C 62.2459,79.7484 64.2459,78.4151 66.5,77.5 Z"/></g>
<g><path style="opacity:1" fill="#faf3da" d="M 80.5,76.5 C 78.7483,76.4176 77.7483,77.2509 77.5,79C 78.9322,80.7563 80.5988,82.2563 82.5,83.5C 81.8333,83.5 81.5,83.8333 81.5,84.5C 80.1667,84.5 79.5,85.1667 79.5,86.5C 77.0135,85.0502 77.3469,83.8835 80.5,83C 75.5392,82.096 74.5392,79.7627 77.5,76C 78.7494,75.2599 79.7494,75.4265 80.5,76.5 Z"/></g>
<g><path style="opacity:1" fill="#f4ce68" d="M 93.5,84.5 C 96.986,83.8285 99.6527,84.8285 101.5,87.5C 102.01,90.3878 101.344,92.7211 99.5,94.5C 97.6921,95.9179 97.0254,97.9179 97.5,100.5C 95.8212,100.285 94.8212,100.952 94.5,102.5C 94.0984,99.5234 93.0984,96.8567 91.5,94.5C 90.5651,91.8872 90.3985,89.2205 91,86.5C 91.7083,85.6195 92.5416,84.9528 93.5,84.5 Z"/></g>
<g><path style="opacity:1" fill="#3a7c35" d="M 143.5,80.5 C 144.167,81.8333 145.167,82.8333 146.5,83.5C 147.239,83.369 147.906,83.5357 148.5,84C 150.21,85.6508 151.544,87.4842 152.5,89.5C 153.167,90.5 153.833,91.5 154.5,92.5C 152.408,92.5614 150.908,93.5614 150,95.5C 149.667,95.1667 149.333,94.8333 149,94.5C 147.933,95.1905 146.766,95.6905 145.5,96C 146.609,97.813 145.942,98.6463 143.5,98.5C 144.625,97.3478 144.625,96.3478 143.5,95.5C 140.902,91.562 137.902,87.8953 134.5,84.5C 134.62,83.4138 135.287,82.7472 136.5,82.5C 137.864,83.0431 139.197,83.2098 140.5,83C 138.018,79.4634 139.018,78.6301 143.5,80.5 Z"/></g>
<g><path style="opacity:1" fill="#faf9ef" d="M 102.5,85.5 C 103.369,87.717 103.702,90.0504 103.5,92.5C 102.596,93.209 102.263,94.209 102.5,95.5C 101.209,95.7373 100.209,95.404 99.5,94.5C 101.344,92.7211 102.01,90.3878 101.5,87.5C 101.328,86.5084 101.662,85.8417 102.5,85.5 Z"/></g>
<g><path style="opacity:1" fill="#f6d376" d="M 81.5,84.5 C 81.8333,84.5 82.1667,84.5 82.5,84.5C 82.5,84.8333 82.5,85.1667 82.5,85.5C 84.3691,86.1646 86.3691,86.8313 88.5,87.5C 85.9135,88.48 83.2469,88.8134 80.5,88.5C 80.5,87.8333 80.1667,87.5 79.5,87.5C 79.5,87.1667 79.5,86.8333 79.5,86.5C 79.5,85.1667 80.1667,84.5 81.5,84.5 Z"/></g>
<g><path style="opacity:1" fill="#faecbe" d="M 88.5,77.5 C 88.2291,79.3797 88.8958,80.713 90.5,81.5C 90.8041,83.7957 91.8041,84.129 93.5,82.5C 93.5,82.8333 93.5,83.1667 93.5,83.5C 93.5,83.8333 93.5,84.1667 93.5,84.5C 92.5416,84.9528 91.7083,85.6195 91,86.5C 90.3985,89.2205 90.5651,91.8872 91.5,94.5C 89.8008,94.3398 88.1341,94.5065 86.5,95C 84.0808,97.5311 81.7475,100.031 79.5,102.5C 75.7427,101.068 75.0761,99.0681 77.5,96.5C 84.2855,92.7975 83.6188,91.6308 75.5,93C 72.7406,90.4262 73.074,88.2595 76.5,86.5C 77.4168,87.1272 78.4168,87.4606 79.5,87.5C 80.1667,87.5 80.5,87.8333 80.5,88.5C 83.2469,88.8134 85.9135,88.48 88.5,87.5C 86.3691,86.8313 84.3691,86.1646 82.5,85.5C 82.8333,85.5 83.1667,85.5 83.5,85.5C 86.0821,85.9746 88.0821,85.3079 89.5,83.5C 87.5252,81.6381 87.1919,79.6381 88.5,77.5 Z"/></g>
<g><path style="opacity:1" fill="#f9bf28" d="M 107.5,76.5 C 109.46,78.1563 111.46,79.823 113.5,81.5C 113.963,84.4824 114.296,87.4824 114.5,90.5C 113.391,90.5569 112.391,90.8902 111.5,91.5C 110.534,88.8753 109.534,88.8753 108.5,91.5C 109.325,92.3857 110.325,92.719 111.5,92.5C 110.081,93.4511 108.415,93.7845 106.5,93.5C 106.104,90.9556 106.771,88.7889 108.5,87C 107.207,86.51 105.873,86.3433 104.5,86.5C 104.795,88.7354 104.461,90.7354 103.5,92.5C 103.702,90.0504 103.369,87.717 102.5,85.5C 101.374,83.5475 99.7075,82.0475 97.5,81C 102.159,79.3486 104.826,80.8486 105.5,85.5C 106.833,85.5 108.167,85.5 109.5,85.5C 109.67,84.1779 109.337,83.0113 108.5,82C 105.315,79.4581 101.648,77.9581 97.5,77.5C 100.768,76.513 104.102,76.1796 107.5,76.5 Z"/></g>
<g><path style="opacity:1" fill="#f9e7aa" d="M 94.5,85.5 C 97.9304,84.7553 99.597,86.0886 99.5,89.5C 97.8096,92.5459 96.4763,95.8792 95.5,99.5C 95.0008,95.8026 93.6675,92.4693 91.5,89.5C 92.1716,87.8405 93.1716,86.5072 94.5,85.5 Z"/></g>
<g><path style="opacity:1" fill="#f9c031" d="M 93.5,87.5 C 95.1667,87.5 96.8333,87.5 98.5,87.5C 99.1693,91.6759 97.6693,93.0093 94,91.5C 93.51,90.2068 93.3433,88.8734 93.5,87.5 Z"/></g>
<g><path style="opacity:1" fill="#fde293" d="M 8.5,86.5 C 8.63466,88.5542 7.96799,90.2209 6.5,91.5C 4.56475,92.1495 2.56475,92.4828 0.5,92.5C 3.88553,91.4723 6.5522,89.4723 8.5,86.5 Z"/></g>
<g><path style="opacity:1" fill="#d8e4d6" d="M 152.5,89.5 C 154.5,89.5 155.5,90.5 155.5,92.5C 155.167,92.5 154.833,92.5 154.5,92.5C 153.833,91.5 153.167,90.5 152.5,89.5 Z"/></g>
<g><path style="opacity:1" fill="#f4cb60" d="M 75.5,88.5 C 79.851,88.9691 84.1843,89.6358 88.5,90.5C 86.6667,90.8333 84.8333,91.1667 83,91.5C 80.6977,91.3996 78.6977,90.733 77,89.5C 75.9125,91.9316 75.4125,91.5983 75.5,88.5 Z"/></g>
<g><path style="opacity:1" fill="#33762e" d="M 56.5,74.5 C 58.6477,74.3894 58.981,75.056 57.5,76.5C 58.0354,78.2705 58.8687,78.6039 60,77.5C 60.49,78.7932 60.6567,80.1266 60.5,81.5C 58.4202,83.5732 56.7536,85.9066 55.5,88.5C 54.5041,88.4142 53.6708,88.7476 53,89.5C 51.4511,87.7495 50.6178,86.0828 50.5,84.5C 49.5,85.8333 48.5,87.1667 47.5,88.5C 45.8667,87.2558 44.8667,87.7558 44.5,90C 45.444,91.4768 46.7774,92.4768 48.5,93C 46.2464,94.0539 45.913,95.5539 47.5,97.5C 45.8471,99.6493 43.8471,101.316 41.5,102.5C 39.0365,100.539 36.7032,98.3722 34.5,96C 41.7018,88.6308 49.0351,81.4641 56.5,74.5 Z"/></g>
<g><path style="opacity:1" fill="#fbe89f" d="M 111.5,91.5 C 111.5,91.8333 111.5,92.1667 111.5,92.5C 110.325,92.719 109.325,92.3857 108.5,91.5C 109.534,88.8753 110.534,88.8753 111.5,91.5 Z"/></g>
<g><path style="opacity:1" fill="#fabd1d" d="M 6.5,91.5 C 7.83333,93.1667 9.16667,94.8333 10.5,96.5C 13.8874,97.8871 16.2207,100.22 17.5,103.5C 18.4345,104.568 18.7678,105.901 18.5,107.5C 18.3339,113.176 18.5006,118.843 19,124.5C 19.3826,125.056 19.8826,125.389 20.5,125.5C 20.6107,126.117 20.944,126.617 21.5,127C 23.8098,127.497 26.1432,127.663 28.5,127.5C 28.5,129.5 28.5,131.5 28.5,133.5C 23.7697,133.717 19.1031,133.383 14.5,132.5C 12.5756,130.305 10.9089,127.972 9.5,125.5C 9.66632,118.159 9.49966,110.826 9,103.5C 8.2917,102.619 7.45837,101.953 6.5,101.5C 5.08896,99.461 3.08896,98.461 0.5,98.5C 0.5,96.5 0.5,94.5 0.5,92.5C 2.56475,92.4828 4.56475,92.1495 6.5,91.5 Z"/></g>
<g><path style="opacity:1" fill="#f9bb13" d="M 111.5,92.5 C 111.5,92.1667 111.5,91.8333 111.5,91.5C 112.391,90.8902 113.391,90.5569 114.5,90.5C 115.094,92.8553 116.094,95.022 117.5,97C 115.349,100.614 114.015,104.447 113.5,108.5C 111.833,108.5 110.167,108.5 108.5,108.5C 108.26,105.421 108.593,102.421 109.5,99.5C 107.78,98.0803 105.946,96.747 104,95.5C 103.517,94.552 103.351,93.552 103.5,92.5C 104.461,90.7354 104.795,88.7354 104.5,86.5C 105.873,86.3433 107.207,86.51 108.5,87C 106.771,88.7889 106.104,90.9556 106.5,93.5C 108.415,93.7845 110.081,93.4511 111.5,92.5 Z"/></g>
<g><path style="opacity:1" fill="#fce9aa" d="M 113.5,81.5 C 115.956,84.9924 117.123,88.9924 117,93.5C 118.236,94.3992 119.07,95.5659 119.5,97C 117.129,100.705 115.129,104.538 113.5,108.5C 114.015,104.447 115.349,100.614 117.5,97C 116.094,95.022 115.094,92.8553 114.5,90.5C 114.296,87.4824 113.963,84.4824 113.5,81.5 Z"/></g>
<g><path style="opacity:1" fill="#f9e39d" d="M -0.5,92.5 C -0.166667,92.5 0.166667,92.5 0.5,92.5C 0.5,94.5 0.5,96.5 0.5,98.5C 3.08896,98.461 5.08896,99.461 6.5,101.5C 4.16667,100.833 1.83333,100.167 -0.5,99.5C -0.5,97.1667 -0.5,94.8333 -0.5,92.5 Z"/></g>
<g><path style="opacity:1" fill="#f6c951" d="M 77.5,96.5 C 78.8333,96.5 80.1667,96.5 81.5,96.5C 81.5,97.8333 81.5,99.1667 81.5,100.5C 80.1667,100.5 78.8333,100.5 77.5,100.5C 77.5,99.1667 77.5,97.8333 77.5,96.5 Z"/></g>
<g><path style="opacity:1" fill="#fbe5a6" d="M 14.5,94.5 C 13.8764,96.5053 14.7097,98.1719 17,99.5C 17.49,100.793 17.6567,102.127 17.5,103.5C 16.2207,100.22 13.8874,97.8871 10.5,96.5C 11.1834,94.8235 12.5168,94.1568 14.5,94.5 Z"/></g>
<g><path style="opacity:1" fill="#fabe21" d="M 106.5,107.5 C 103.697,107.039 101.363,105.705 99.5,103.5C 99.5,101.167 99.5,98.8333 99.5,96.5C 101.722,96.178 103.556,96.8446 105,98.5C 106.149,101.393 106.649,104.393 106.5,107.5 Z"/></g>
<g><path style="opacity:1" fill="#bbd0ba" d="M 143.5,95.5 C 144.625,96.3478 144.625,97.3478 143.5,98.5C 140.833,100.5 138.5,102.833 136.5,105.5C 134.833,106.833 133.167,108.167 131.5,109.5C 135.103,104.558 139.103,99.8918 143.5,95.5 Z"/></g>
<g><path style="opacity:1" fill="#42803e" d="M 55.5,88.5 C 53.8729,90.6298 52.0396,92.6298 50,94.5C 49.805,95.8193 49.9717,97.1526 50.5,98.5C 51.1667,99.8333 52.1667,100.833 53.5,101.5C 55.1898,101.856 56.1898,102.856 56.5,104.5C 55.1667,104.5 53.8333,104.5 52.5,104.5C 52.33,105.822 52.6634,106.989 53.5,108C 52.2068,108.49 50.8734,108.657 49.5,108.5C 49.5,109.5 49.5,110.5 49.5,111.5C 49.1667,111.5 48.8333,111.5 48.5,111.5C 47.8333,111.5 47.5,111.167 47.5,110.5C 47.9382,110.565 48.2716,110.399 48.5,110C 45.9614,107.63 43.6281,105.13 41.5,102.5C 43.8471,101.316 45.8471,99.6493 47.5,97.5C 45.913,95.5539 46.2464,94.0539 48.5,93C 46.7774,92.4768 45.444,91.4768 44.5,90C 44.8667,87.7558 45.8667,87.2558 47.5,88.5C 48.5,87.1667 49.5,85.8333 50.5,84.5C 50.6178,86.0828 51.4511,87.7495 53,89.5C 53.6708,88.7476 54.5041,88.4142 55.5,88.5 Z"/></g>
<g><path style="opacity:1" fill="#d5e2d4" d="M 50.5,98.5 C 52.5,98.5 53.5,99.5 53.5,101.5C 52.1667,100.833 51.1667,99.8333 50.5,98.5 Z"/></g>
<g><path style="opacity:1" fill="#acc7ab" d="M 155.5,92.5 C 158.244,93.0717 159.077,94.7383 158,97.5C 155.963,99.7059 153.797,101.706 151.5,103.5C 152.882,100.606 154.882,98.1057 157.5,96C 156.695,94.8873 156.028,93.7206 155.5,92.5 Z"/></g>
<g><path style="opacity:1" fill="#f7e092" d="M 103.5,92.5 C 103.351,93.552 103.517,94.552 104,95.5C 105.946,96.747 107.78,98.0803 109.5,99.5C 108.593,102.421 108.26,105.421 108.5,108.5C 110.167,108.5 111.833,108.5 113.5,108.5C 111.5,111.167 109.5,111.167 107.5,108.5C 107.5,107.833 107.167,107.5 106.5,107.5C 106.649,104.393 106.149,101.393 105,98.5C 103.556,96.8446 101.722,96.178 99.5,96.5C 99.5,98.8333 99.5,101.167 99.5,103.5C 98.8333,103.5 98.5,103.833 98.5,104.5C 97.5655,103.432 97.2322,102.099 97.5,100.5C 97.0254,97.9179 97.6921,95.9179 99.5,94.5C 100.209,95.404 101.209,95.7373 102.5,95.5C 102.263,94.209 102.596,93.209 103.5,92.5 Z"/></g>
<g><path style="opacity:1" fill="#32782f" d="M 154.5,92.5 C 154.833,92.5 155.167,92.5 155.5,92.5C 156.028,93.7206 156.695,94.8873 157.5,96C 154.882,98.1057 152.882,100.606 151.5,103.5C 147.531,106.459 143.531,109.459 139.5,112.5C 138.583,111.873 137.583,111.539 136.5,111.5C 136.565,111.062 136.399,110.728 136,110.5C 134.355,112.715 132.188,113.548 129.5,113C 132.739,111.264 135.073,108.764 136.5,105.5C 138.5,102.833 140.833,100.5 143.5,98.5C 145.942,98.6463 146.609,97.813 145.5,96C 146.766,95.6905 147.933,95.1905 149,94.5C 149.333,94.8333 149.667,95.1667 150,95.5C 150.908,93.5614 152.408,92.5614 154.5,92.5 Z"/></g>
<g><path style="opacity:1" fill="#337830" d="M 56.5,104.5 C 58.7631,108.103 61.4297,111.436 64.5,114.5C 63.1667,114.5 61.8333,114.5 60.5,114.5C 60.719,113.325 60.3857,112.325 59.5,111.5C 58.2528,113.006 58.2528,114.506 59.5,116C 58.7562,117.039 57.7562,117.539 56.5,117.5C 54.1667,115.5 51.8333,113.5 49.5,111.5C 49.5,110.5 49.5,109.5 49.5,108.5C 50.8734,108.657 52.2068,108.49 53.5,108C 52.6634,106.989 52.33,105.822 52.5,104.5C 53.8333,104.5 55.1667,104.5 56.5,104.5 Z"/></g>
<g><path style="opacity:1" fill="#96b995" d="M 56.5,104.5 C 60.5,107.833 64.1667,111.5 67.5,115.5C 66.391,115.443 65.391,115.11 64.5,114.5C 61.4297,111.436 58.7631,108.103 56.5,104.5 Z"/></g>
<g><path style="opacity:1" fill="#f8c33f" d="M 94.5,102.5 C 94.8212,100.952 95.8212,100.285 97.5,100.5C 97.2322,102.099 97.5655,103.432 98.5,104.5C 102.401,106.687 103.901,110.021 103,114.5C 102.887,112.026 101.887,110.026 100,108.5C 98.5993,110.192 96.7659,110.859 94.5,110.5C 94.719,109.325 94.3857,108.325 93.5,107.5C 92.35,109.763 91.35,112.096 90.5,114.5C 89.7891,109.747 88.7891,105.081 87.5,100.5C 87.2606,97.0536 88.5939,96.0536 91.5,97.5C 90.8333,98.1667 90.1667,98.8333 89.5,99.5C 89.8457,100.696 90.3457,100.696 91,99.5C 91.4955,101.473 91.6621,103.473 91.5,105.5C 92.5,105.5 93.5,105.5 94.5,105.5C 94.5,104.5 94.5,103.5 94.5,102.5 Z"/></g>
<g><path style="opacity:1" fill="#fbf7eb" d="M 18.5,107.5 C 19.2476,113.366 19.9143,119.366 20.5,125.5C 19.8826,125.389 19.3826,125.056 19,124.5C 18.5006,118.843 18.3339,113.176 18.5,107.5 Z"/></g>
<g><path style="opacity:1" fill="#fadf90" d="M 6.5,101.5 C 7.45837,101.953 8.2917,102.619 9,103.5C 9.49966,110.826 9.66632,118.159 9.5,125.5C 9.02806,117.518 8.02806,109.518 6.5,101.5 Z"/></g>
<g><path style="opacity:1" fill="#bcd1bb" d="M 48.5,111.5 C 48.8333,111.5 49.1667,111.5 49.5,111.5C 51.8333,113.5 54.1667,115.5 56.5,117.5C 59.5703,120.564 62.2369,123.897 64.5,127.5C 58.8333,122.5 53.5,117.167 48.5,111.5 Z"/></g>
<g><path style="opacity:1" fill="#f8e9b8" d="M 91.5,94.5 C 93.0984,96.8567 94.0984,99.5234 94.5,102.5C 94.5,103.5 94.5,104.5 94.5,105.5C 93.5,105.5 92.5,105.5 91.5,105.5C 91.6621,103.473 91.4955,101.473 91,99.5C 90.3457,100.696 89.8457,100.696 89.5,99.5C 90.1667,98.8333 90.8333,98.1667 91.5,97.5C 88.5939,96.0536 87.2606,97.0536 87.5,100.5C 88.7891,105.081 89.7891,109.747 90.5,114.5C 91.35,112.096 92.35,109.763 93.5,107.5C 94.3857,108.325 94.719,109.325 94.5,110.5C 96.7659,110.859 98.5993,110.192 100,108.5C 101.887,110.026 102.887,112.026 103,114.5C 103.901,110.021 102.401,106.687 98.5,104.5C 98.5,103.833 98.8333,103.5 99.5,103.5C 101.363,105.705 103.697,107.039 106.5,107.5C 107.167,107.5 107.5,107.833 107.5,108.5C 106.5,108.5 105.5,108.5 104.5,108.5C 105.45,111.068 105.45,113.568 104.5,116C 99.3338,116.072 94.0005,116.238 88.5,116.5C 88.2572,109.742 87.7572,103.075 87,96.5C 88.6225,95.9011 90.1225,95.2344 91.5,94.5 Z"/></g>
<g><path style="opacity:1" fill="#81aa7c" d="M 151.5,103.5 C 145.672,110.533 139.338,116.866 132.5,122.5C 133.43,120.07 134.93,118.07 137,116.5C 137.384,114.803 137.218,113.137 136.5,111.5C 137.583,111.539 138.583,111.873 139.5,112.5C 143.531,109.459 147.531,106.459 151.5,103.5 Z"/></g>
<g><path style="opacity:1" fill="#367933" d="M 64.5,114.5 C 65.391,115.11 66.391,115.443 67.5,115.5C 70.0751,119.419 73.0751,123.085 76.5,126.5C 72.5546,127.491 68.5546,127.824 64.5,127.5C 62.2369,123.897 59.5703,120.564 56.5,117.5C 57.7562,117.539 58.7562,117.039 59.5,116C 58.2528,114.506 58.2528,113.006 59.5,111.5C 60.3857,112.325 60.719,113.325 60.5,114.5C 61.8333,114.5 63.1667,114.5 64.5,114.5 Z"/></g>
<g><path style="opacity:1" fill="#fdc74e" d="M 190.5,116.5 C 190.5,117.833 190.5,119.167 190.5,120.5C 182.5,120.5 174.5,120.5 166.5,120.5C 166.5,119.167 166.5,117.833 166.5,116.5C 174.5,115.167 182.5,115.167 190.5,116.5 Z"/></g>
<g><path style="opacity:1" fill="#3c7d37" d="M 136.5,105.5 C 135.073,108.764 132.739,111.264 129.5,113C 132.188,113.548 134.355,112.715 136,110.5C 136.399,110.728 136.565,111.062 136.5,111.5C 137.218,113.137 137.384,114.803 137,116.5C 134.93,118.07 133.43,120.07 132.5,122.5C 132.5,123.167 132.167,123.5 131.5,123.5C 129.586,124.185 127.586,124.685 125.5,125C 126.167,125.333 126.833,125.667 127.5,126C 123.833,126.667 120.167,126.667 116.5,126C 117.364,124.303 118.697,123.137 120.5,122.5C 121.386,121.675 121.719,120.675 121.5,119.5C 124.167,115.5 127.5,112.167 131.5,109.5C 133.167,108.167 134.833,106.833 136.5,105.5 Z"/></g>
<g><path style="opacity:1" fill="#fde19f" d="M 166.5,116.5 C 166.5,117.833 166.5,119.167 166.5,120.5C 174.5,120.5 182.5,120.5 190.5,120.5C 190.5,119.167 190.5,117.833 190.5,116.5C 190.833,116.5 191.167,116.5 191.5,116.5C 191.5,118.167 191.5,119.833 191.5,121.5C 183.245,122.634 174.912,122.801 166.5,122C 165.193,120.057 165.193,118.223 166.5,116.5 Z"/></g>
<g><path style="opacity:1" fill="#fbeeaf" d="M 9.5,125.5 C 10.9089,127.972 12.5756,130.305 14.5,132.5C 11.142,131.473 9.47535,129.14 9.5,125.5 Z"/></g>
<g><path style="opacity:1" fill="#749e70" d="M 121.5,119.5 C 121.719,120.675 121.386,121.675 120.5,122.5C 118.697,123.137 117.364,124.303 116.5,126C 120.167,126.667 123.833,126.667 127.5,126C 126.833,125.667 126.167,125.333 125.5,125C 127.586,124.685 129.586,124.185 131.5,123.5C 130.674,125.264 129.341,126.598 127.5,127.5C 123.029,128.089 119.029,127.423 115.5,125.5C 117.103,123.046 119.103,121.046 121.5,119.5 Z"/></g>
<g><path style="opacity:1" fill="#c7d8c8" d="M 67.5,115.5 C 72.3237,118.979 75.9904,123.313 78.5,128.5C 73.6367,128.819 68.97,128.486 64.5,127.5C 68.5546,127.824 72.5546,127.491 76.5,126.5C 73.0751,123.085 70.0751,119.419 67.5,115.5 Z"/></g>
<g><path style="opacity:1" fill="#d5e3d9" d="M 115.5,125.5 C 119.029,127.423 123.029,128.089 127.5,127.5C 123.366,128.485 119.032,128.818 114.5,128.5C 114.263,127.209 114.596,126.209 115.5,125.5 Z"/></g>
<g><path style="opacity:1" fill="#fae693" d="M 20.5,125.5 C 23.4552,126.159 26.4552,126.492 29.5,126.5C 29.5,129.167 29.5,131.833 29.5,134.5C 24.8215,134.666 20.1548,134.499 15.5,134C 14.944,133.617 14.6107,133.117 14.5,132.5C 19.1031,133.383 23.7697,133.717 28.5,133.5C 28.5,131.5 28.5,129.5 28.5,127.5C 26.1432,127.663 23.8098,127.497 21.5,127C 20.944,126.617 20.6107,126.117 20.5,125.5 Z"/></g>
</svg>
